<svg width="30" height="30" viewBox="0 0 30 30" fill="none" xmlns="http://www.w3.org/2000/svg">
<path d="M0 14.9997C0 13.7029 0.16455 12.4446 0.473925 11.2445C2.10933 11.3292 3.73272 10.5152 4.6077 8.99973C5.48201 7.48537 5.37609 5.67406 4.48682 4.30051C6.27531 2.54293 8.50248 1.23033 10.989 0.541992C11.7333 2.00077 13.25 2.99973 15 2.99973C16.7501 2.99973 18.2667 2.00077 19.011 0.541992C21.4976 1.23033 23.7248 2.54293 25.5132 4.30051C24.6239 5.67406 24.518 7.48537 25.3923 8.99973C26.2673 10.5152 27.8907 11.3292 29.5262 11.2445C29.8355 12.4446 30 13.7029 30 14.9997C30 16.2964 29.8355 17.5548 29.5262 18.7549C27.8907 18.6702 26.2673 19.4842 25.3923 20.9997C24.518 22.5141 24.6239 24.3253 25.5132 25.6989C23.7248 27.4564 21.4976 28.7691 19.011 29.4574C18.2667 27.9987 16.7501 26.9997 15 26.9997C13.25 26.9997 11.7333 27.9987 10.989 29.4574C8.50248 28.7691 6.27531 27.4564 4.48682 25.6989C5.37609 24.3253 5.48201 22.5141 4.6077 20.9997C3.73272 19.4842 2.10933 18.6702 0.473925 18.7549C0.16455 17.5548 0 16.2964 0 14.9997ZM7.20578 19.4997C8.15093 21.1368 8.42187 23.0188 8.05227 24.7854C8.66396 25.2207 9.31508 25.5978 9.99734 25.9111C11.3426 24.7068 13.1088 23.9997 15 23.9997C16.8912 23.9997 18.6573 24.7068 20.0027 25.9111C20.6849 25.5978 21.336 25.2207 21.9477 24.7854C21.5781 23.0188 21.849 21.1368 22.7943 19.4997C23.7393 17.8627 25.2338 16.6872 26.9483 16.1239C26.9826 15.7522 27 15.3774 27 14.9997C27 14.6221 26.9826 14.2471 26.9483 13.8756C25.2338 13.3123 23.7393 12.1368 22.7943 10.4997C21.849 8.86267 21.5781 6.98067 21.9477 5.21407C21.336 4.77882 20.6849 4.4017 20.0027 4.08828C18.6573 5.29266 16.8912 5.99973 15 5.99973C13.1088 5.99973 11.3426 5.29266 9.99734 4.08828C9.31508 4.4017 8.66396 4.77882 8.05227 5.21407C8.42187 6.98067 8.15093 8.86267 7.20578 10.4997C6.26064 12.1368 4.76631 13.3123 3.05177 13.8756C3.01736 14.2471 3 14.6221 3 14.9997C3 15.3774 3.01736 15.7522 3.05177 16.1239C4.76631 16.6872 6.26064 17.8627 7.20578 19.4997ZM15 19.4997C12.5147 19.4997 10.5 17.485 10.5 14.9997C10.5 12.5145 12.5147 10.4997 15 10.4997C17.4854 10.4997 19.5 12.5145 19.5 14.9997C19.5 17.485 17.4854 19.4997 15 19.4997ZM15 16.4997C15.8285 16.4997 16.5 15.8281 16.5 14.9997C16.5 14.1712 15.8285 13.4997 15 13.4997C14.1716 13.4997 13.5 14.1712 13.5 14.9997C13.5 15.8281 14.1716 16.4997 15 16.4997Z" fill="black"/>
</svg>
