<svg width="20" height="19" viewBox="0 0 20 19" fill="none" xmlns="http://www.w3.org/2000/svg">
<path d="M4.94146 2.93841C4.94109 3.75272 4.44706 4.4855 3.69232 4.79121C2.93758 5.09693 2.07285 4.91453 1.50588 4.33003C0.938906 3.74552 0.782926 2.87563 1.11148 2.13055C1.44004 1.38547 2.18752 0.913976 3.00146 0.938406C4.08253 0.970856 4.94195 1.85685 4.94146 2.93841ZM5.00146 6.41841H1.00146V18.9384H5.00146V6.41841ZM11.3215 6.41841H7.34146V18.9384H11.2815V12.3684C11.2815 8.70838 16.0515 8.36838 16.0515 12.3684V18.9384H20.0015V11.0084C20.0015 4.83841 12.9415 5.06841 11.2815 8.09838L11.3215 6.41841Z" fill="#808080"/>
</svg>
