<svg width="20" height="21" viewBox="0 0 20 21" fill="none" xmlns="http://www.w3.org/2000/svg">
<path opacity="0.5" d="M11.0291 0.939453C12.1545 0.941313 12.7248 0.947273 13.2176 0.961943L13.4117 0.968283C13.6359 0.976253 13.8571 0.986253 14.1238 0.998753C15.1879 1.04792 15.9138 1.21625 16.5513 1.46375C17.2104 1.71792 17.7671 2.06125 18.3229 2.61709C18.8779 3.17292 19.2213 3.73125 19.4763 4.38875C19.7229 5.02542 19.8913 5.75209 19.9413 6.81625C19.9532 7.08292 19.9628 7.30412 19.9707 7.52836L19.977 7.72245C19.9916 8.21519 19.9983 8.78558 20.0004 9.91102L20.0012 10.6566C20.0013 10.7477 20.0013 10.8417 20.0013 10.9387L20.0012 11.2208L20.0006 11.9665C19.9987 13.0919 19.9928 13.6623 19.9781 14.155L19.9717 14.3491C19.9638 14.5734 19.9538 14.7946 19.9413 15.0612C19.8921 16.1254 19.7229 16.8512 19.4763 17.4887C19.2221 18.1479 18.8779 18.7046 18.3229 19.2604C17.7671 19.8154 17.2079 20.1587 16.5513 20.4137C15.9138 20.6604 15.1879 20.8287 14.1238 20.8787C13.8571 20.8906 13.6359 20.9003 13.4117 20.9081L13.2176 20.9144C12.7248 20.9291 12.1545 20.9357 11.0291 20.9379L10.2834 20.9387C10.1923 20.9387 10.0983 20.9387 10.0013 20.9387H9.71917L8.97347 20.938C7.84807 20.9362 7.27769 20.9302 6.78494 20.9155L6.59086 20.9092C6.36661 20.9012 6.14541 20.8912 5.87875 20.8787C4.81458 20.8296 4.08958 20.6604 3.45125 20.4137C2.79291 20.1596 2.23541 19.8154 1.67958 19.2604C1.12375 18.7046 0.781253 18.1454 0.526253 17.4887C0.278753 16.8512 0.111253 16.1254 0.0612533 15.0612C0.0493733 14.7946 0.0396832 14.5734 0.0318332 14.3491L0.0255432 14.155C0.0109132 13.6623 0.0042433 13.0919 0.0020833 11.9665L0.00195312 9.91102C0.00381312 8.78558 0.00976314 8.21519 0.0244331 7.72245L0.0307832 7.52836C0.0387532 7.30412 0.0487533 7.08292 0.0612533 6.81625C0.110413 5.75125 0.278753 5.02625 0.526253 4.38875C0.780413 3.73042 1.12375 3.17292 1.67958 2.61709C2.23541 2.06125 2.79375 1.71875 3.45125 1.46375C4.08875 1.21625 4.81375 1.04875 5.87875 0.998753C6.14541 0.986883 6.36661 0.977193 6.59086 0.969343L6.78494 0.963053C7.27769 0.948413 7.84807 0.941743 8.97347 0.939583L11.0291 0.939453ZM10.0013 5.93875C7.23835 5.93875 5.00125 8.17828 5.00125 10.9387C5.00125 13.7016 7.24078 15.9387 10.0013 15.9387C12.7642 15.9387 15.0013 13.6992 15.0013 10.9387C15.0013 8.17585 12.7617 5.93875 10.0013 5.93875ZM10.0013 7.93875C11.6582 7.93875 13.0013 9.28142 13.0013 10.9387C13.0013 12.5956 11.6586 13.9387 10.0013 13.9387C8.34437 13.9387 7.00125 12.5961 7.00125 10.9387C7.00125 9.28182 8.34387 7.93875 10.0013 7.93875ZM15.2513 4.43875C14.562 4.43875 14.0013 4.99866 14.0013 5.6879C14.0013 6.37715 14.5612 6.93792 15.2513 6.93792C15.9405 6.93792 16.5013 6.37802 16.5013 5.6879C16.5013 4.99866 15.9396 4.43789 15.2513 4.43875Z" fill="#F1F1F1" fill-opacity="0.945098"/>
</svg>
