<svg width="70" height="71" viewBox="0 0 70 71" fill="none" xmlns="http://www.w3.org/2000/svg">
<path d="M44.8565 25.8755C44.9633 25.8743 45.0702 25.8731 45.1803 25.8718C45.4058 25.8698 45.6314 25.8686 45.857 25.8681C46.2013 25.8665 46.5452 25.8597 46.8894 25.8528C47.109 25.8515 47.3285 25.8505 47.5481 25.8499C47.6505 25.8472 47.753 25.8445 47.8585 25.8418C48.3955 25.8464 48.6454 25.9054 49.0746 26.2378C49.333 26.5796 49.4506 26.7566 49.5124 27.1706C49.5287 27.2714 49.545 27.3722 49.5618 27.4761C49.5825 27.631 49.5825 27.631 49.6037 27.7891C49.6202 27.8934 49.6367 27.9977 49.6536 28.1052C49.7176 28.5215 49.7661 28.9226 49.7661 29.3442C49.9597 29.41 50.1534 29.4754 50.3471 29.5408C50.455 29.5772 50.5628 29.6137 50.674 29.6513C50.7804 29.6853 50.8869 29.7193 50.9965 29.7544C51.0845 29.7855 51.1725 29.8166 51.2631 29.8486C51.5928 29.932 51.5928 29.932 51.976 29.5803C52.1353 29.4407 52.2929 29.2992 52.4492 29.1562C53.4392 28.2753 53.4392 28.2753 54.0214 28.1821C54.5783 28.254 54.6638 28.3002 55.0548 28.658C55.15 28.7448 55.2452 28.8317 55.3432 28.9212C55.859 29.4106 56.3655 29.9083 56.8669 30.4123C57.0241 30.5687 57.0241 30.5687 57.1844 30.7282C57.2839 30.8279 57.3834 30.9276 57.4859 31.0302C57.6204 31.165 57.6204 31.165 57.7577 31.3025C58.0562 31.626 58.104 31.7907 58.1641 32.2351C58.0854 32.9483 57.7569 33.2742 57.3112 33.8132C56.7287 34.5525 56.7287 34.5525 56.6543 35.4565C56.8333 35.8687 57.0239 36.2257 57.2856 36.5903C57.5402 36.6128 57.5402 36.6128 57.7999 36.6357C58.0244 36.6575 58.2489 36.6794 58.4733 36.7014C58.585 36.711 58.6966 36.7206 58.8117 36.7305C59.4406 36.7942 59.9255 36.86 60.4301 37.2739C60.7618 37.7645 60.7455 38.2652 60.7447 38.8371C60.7453 38.9348 60.7459 39.0326 60.7465 39.1333C60.7473 39.3396 60.7473 39.5458 60.7467 39.7521C60.7463 40.0666 60.7495 40.3809 60.753 40.6954C60.7533 40.8962 60.7534 41.0971 60.7532 41.298C60.7545 41.3915 60.7558 41.4849 60.757 41.5812C60.7513 42.1744 60.6575 42.5455 60.2934 43.0161C59.7891 43.3523 59.3068 43.4159 58.7211 43.5117C58.6156 43.53 58.51 43.5484 58.4012 43.5673C57.9793 43.6389 57.5776 43.6997 57.1489 43.6997C57.132 43.8153 57.115 43.9309 57.0976 44.05C57.0122 44.52 57.0122 44.52 56.8247 44.9681C56.6939 45.4436 56.6939 45.4436 56.8553 45.7182C57.0471 45.9699 57.2496 46.2023 57.465 46.4341C58.0232 47.0478 58.3897 47.471 58.3793 48.3481C58.2218 48.6424 58.2218 48.6424 57.9777 48.8865C57.8891 48.9779 57.8004 49.0694 57.7091 49.1636C57.6145 49.2555 57.5198 49.3473 57.4223 49.4419C57.3319 49.5323 57.2415 49.6227 57.1483 49.7159C56.9663 49.8979 56.7835 50.0791 56.5999 50.2595C56.2457 50.62 55.9198 51.0009 55.5958 51.3885C55.1986 51.815 54.9679 52.0156 54.3782 52.1143C53.6869 52.0131 53.3379 51.6858 52.8081 51.2534C52.0878 50.6859 52.0878 50.6859 51.2134 50.5575C50.8391 50.7032 50.5169 50.8717 50.1762 51.0825C50.086 51.0825 49.9958 51.0825 49.9028 51.0825C49.8961 51.2293 49.8894 51.3761 49.8825 51.5274C49.8722 51.7237 49.8619 51.9201 49.8515 52.1164C49.8473 52.2128 49.8431 52.3091 49.8387 52.4083C49.8031 53.0529 49.7132 53.6183 49.4926 54.227C49.0053 54.5955 48.6206 54.6555 48.0277 54.6463C47.8628 54.6443 47.8628 54.6443 47.6945 54.6423C47.6111 54.6406 47.5277 54.6389 47.4418 54.6372C47.4431 54.7675 47.4443 54.8977 47.4455 55.0319C47.4567 56.2648 47.4648 57.4976 47.4702 58.7305C47.473 59.3643 47.4769 59.9979 47.4831 60.6316C47.4891 61.2442 47.4923 61.8567 47.4937 62.4693C47.4947 62.702 47.4967 62.9346 47.4997 63.1673C47.5216 64.9606 47.397 66.4199 46.0966 67.7788C45.1841 68.5724 44.2245 68.7396 43.0497 68.7412C42.9204 68.7419 42.7911 68.7426 42.6579 68.7433C42.2228 68.7454 41.7877 68.7466 41.3526 68.7478C41.0413 68.7491 40.7301 68.7504 40.4188 68.7518C39.3947 68.7561 38.3707 68.7589 37.3466 68.7614C37.1723 68.7619 36.9981 68.7623 36.8186 68.7628C35.1752 68.767 33.5317 68.7707 31.8883 68.773C31.5077 68.7735 31.127 68.774 30.7464 68.7746C30.6518 68.7747 30.5572 68.7749 30.4597 68.775C28.9291 68.7773 27.3986 68.783 25.868 68.7899C24.2952 68.797 22.7225 68.8009 21.1497 68.802C20.2672 68.8026 19.3848 68.8047 18.5023 68.8101C17.6713 68.8152 16.8404 68.8163 16.0094 68.8145C15.7052 68.8145 15.4009 68.8159 15.0967 68.8189C11.8723 68.8483 11.8723 68.8483 10.5323 67.6605C9.33608 66.4362 9.2757 64.8626 9.26954 63.2499C9.26876 63.0919 9.26798 62.9338 9.26718 62.771C9.26589 62.4376 9.265 62.1043 9.26447 61.7709C9.26314 61.2608 9.25889 60.7508 9.25459 60.2408C9.2537 59.9165 9.25298 59.5923 9.25245 59.268C9.25076 59.1156 9.24908 58.9632 9.24734 58.8062C9.24775 58.6638 9.24816 58.5215 9.24858 58.3748C9.24808 58.25 9.24758 58.1253 9.24707 57.9968C9.3087 57.5653 9.45234 57.3125 9.70747 56.9614C10.136 56.6757 10.2299 56.6539 10.7168 56.6543C10.8401 56.6538 10.9633 56.6532 11.0902 56.6527C11.2257 56.6535 11.3612 56.6543 11.5009 56.6551C11.6447 56.6549 11.7885 56.6546 11.9367 56.6544C12.421 56.6539 12.9053 56.6554 13.3896 56.6569C13.7359 56.657 14.0821 56.657 14.4283 56.6568C15.1749 56.6568 15.9216 56.6575 16.6682 56.6591C17.7477 56.6613 18.8271 56.662 19.9066 56.6623C21.658 56.6629 23.4093 56.6648 25.1606 56.6674C26.862 56.6699 28.5634 56.6718 30.2649 56.673C30.3697 56.673 30.4745 56.6731 30.5826 56.6732C31.1085 56.6735 31.6345 56.6739 32.1605 56.6742C36.5251 56.6771 40.8897 56.6819 45.2543 56.688C45.2543 56.0112 45.2543 55.3345 45.2543 54.6372C44.9385 54.6372 44.6227 54.6372 44.2973 54.6372C43.9213 54.5517 43.9213 54.5517 43.6137 54.3638C43.2638 53.7976 43.1568 53.3185 43.0912 52.6723C43.0089 51.7058 43.0089 51.7058 42.4874 50.9367C41.9779 50.7201 41.6298 50.6179 41.0866 50.7631C40.5321 51.0576 40.1014 51.4853 39.6371 51.9034C39.1561 52.2329 38.8644 52.3175 38.2817 52.313C37.7121 51.9789 37.2523 51.5909 36.7879 51.1242C36.6678 51.0038 36.5477 50.8834 36.424 50.7594C36.301 50.6348 36.1781 50.5102 36.0515 50.3818C35.8631 50.1933 35.8631 50.1933 35.6709 50.001C34.6081 48.9311 34.6081 48.9311 34.5385 48.2552C34.547 47.5702 34.8554 47.1992 35.2824 46.6904C35.8012 46.0944 35.8012 46.0944 35.9569 45.3414C35.912 45.2057 35.8671 45.07 35.8208 44.9302C35.7781 44.7599 35.7355 44.5897 35.6915 44.4143C35.4657 43.9616 35.4657 43.9616 35.132 43.8699C34.7741 43.8103 34.4224 43.7757 34.0605 43.751C33.8157 43.732 33.571 43.7104 33.3267 43.6858C33.2183 43.6783 33.11 43.6708 32.9983 43.663C32.5086 43.5109 32.301 43.2859 31.9926 42.8794C31.926 42.4787 31.8995 42.1593 31.9066 41.76C31.9063 41.6533 31.906 41.5467 31.9056 41.4368C31.9058 41.212 31.9076 40.9873 31.911 40.7625C31.9157 40.4194 31.9138 40.0769 31.9112 39.7338C31.9121 39.5148 31.9135 39.2959 31.9152 39.0769C31.9145 38.9749 31.9138 38.8729 31.9131 38.7678C31.9242 38.2752 31.9797 37.9787 32.2392 37.5555C32.6541 37.1665 33.0807 37.104 33.6247 37.0261C33.7689 37.0014 33.7689 37.0014 33.916 36.9762C34.4177 36.8939 34.9024 36.8449 35.4106 36.8638C35.4526 36.7229 35.4526 36.7229 35.4955 36.5791C35.5323 36.4559 35.5692 36.3327 35.6071 36.2058C35.6436 36.0837 35.6801 35.9615 35.7177 35.8357C35.7939 35.5848 35.8745 35.3352 35.9575 35.0864C35.7226 34.747 35.486 34.4366 35.2226 34.1208C35.0818 33.9485 34.9412 33.776 34.8007 33.6033C34.7375 33.5272 34.6744 33.451 34.6093 33.3726C34.2458 32.9052 34.2563 32.5235 34.3168 31.9419C34.5494 31.617 34.7526 31.3777 35.0357 31.1056C35.1096 31.0314 35.1835 30.9572 35.2597 30.8807C35.416 30.725 35.5735 30.5704 35.7321 30.4169C35.9738 30.1823 36.2109 29.9437 36.4477 29.7042C36.6006 29.553 36.7537 29.402 36.907 29.2513C36.9776 29.1802 37.0481 29.1092 37.1208 29.036C37.5801 28.5971 37.9158 28.4039 38.5551 28.3872C39.0389 28.6105 39.427 28.8704 39.8529 29.1888C40.0311 29.3207 40.0311 29.3207 40.2128 29.4553C40.3232 29.5408 40.4335 29.6263 40.5472 29.7143C40.8702 29.925 40.8702 29.925 41.2404 29.8591C41.4705 29.7844 41.6976 29.6999 41.9218 29.6091C42.2465 29.4809 42.2465 29.4809 42.6567 29.4809C42.6733 29.3014 42.6898 29.1218 42.7069 28.9367C42.73 28.6994 42.7531 28.4621 42.7763 28.2248C42.7871 28.1067 42.7978 27.9885 42.8089 27.8668C42.9282 26.6693 42.9282 26.6693 43.2036 26.1997C43.7076 25.8453 44.264 25.8798 44.8565 25.8755ZM44.9809 28.2505C44.9294 28.6294 44.8842 29.0068 44.8442 29.387C44.8217 29.5972 44.799 29.8075 44.7758 30.0177C44.766 30.1113 44.7561 30.205 44.7459 30.3014C44.7061 30.5847 44.6591 30.8492 44.5708 31.1216C44.3208 31.2359 44.3208 31.2359 43.9897 31.3096C43.2253 31.5059 42.5613 31.8283 41.8604 32.187C41.3418 32.3841 41.0203 32.4274 40.4692 32.352C40.098 32.1633 39.7795 31.9247 39.4523 31.6684C39.3654 31.6032 39.2784 31.538 39.1888 31.4708C38.976 31.3109 38.7654 31.1481 38.5551 30.9849C38.4091 31.1035 38.264 31.2234 38.1193 31.3437C38.0384 31.4104 37.9576 31.477 37.8742 31.5456C37.5181 31.8804 37.2224 32.2458 36.9145 32.6255C37.0116 32.7427 37.1087 32.8599 37.2088 32.9806C37.3358 33.1384 37.4627 33.2964 37.5896 33.4543C37.6856 33.5695 37.6856 33.5695 37.7837 33.6869C38.2158 34.231 38.4224 34.6415 38.4184 35.3599C38.2859 35.7273 38.1543 36.0358 37.9741 36.3767C37.884 36.5563 37.7943 36.7361 37.7049 36.9161C37.6621 37.0013 37.6193 37.0864 37.5751 37.1742C37.435 37.4655 37.3253 37.7624 37.2221 38.0686C37.0512 38.5044 37.0512 38.5044 36.6411 38.7778C36.3686 38.8465 36.3686 38.8465 36.0627 38.8942C35.953 38.9119 35.8433 38.9295 35.7302 38.9477C35.6163 38.9649 35.5024 38.9822 35.385 39C35.2117 39.0275 35.2117 39.0275 35.0349 39.0555C34.7501 39.1006 34.4651 39.1444 34.1801 39.188C34.1801 39.955 34.1801 40.722 34.1801 41.5122C34.3629 41.5386 34.5456 41.5651 34.7339 41.5923C34.9737 41.6282 35.2135 41.6642 35.4533 41.7002C35.5738 41.7175 35.6942 41.7347 35.8183 41.7525C35.9342 41.7701 36.0501 41.7878 36.1695 41.8059C36.2762 41.8217 36.3829 41.8374 36.4928 41.8537C36.7778 41.9224 36.7778 41.9224 37.1879 42.1958C37.3396 42.5516 37.4733 42.899 37.5981 43.2639C37.8232 43.9117 38.0557 44.4809 38.4184 45.0669C38.5641 45.7953 38.3484 46.1908 37.9655 46.793C37.7979 47.0382 37.6299 47.2832 37.4614 47.5278C37.326 47.7534 37.1907 47.979 37.0512 48.2114C37.5475 48.7077 38.0438 49.204 38.5551 49.7153C39.1779 49.3002 39.7148 48.8901 40.2721 48.4015C40.7329 48.1391 41.039 48.1564 41.5629 48.2114C41.9971 48.3764 41.9971 48.3764 42.426 48.5959C43.1684 48.9732 43.9083 49.2191 44.7075 49.4419C44.7313 49.5713 44.7313 49.5713 44.7555 49.7033C44.8272 50.0919 44.8998 50.4804 44.9724 50.8689C45.0098 51.0726 45.0098 51.0726 45.0479 51.2804C45.0722 51.4095 45.0964 51.5386 45.1214 51.6716C45.1436 51.7911 45.1658 51.9107 45.1886 52.0339C45.2279 52.3106 45.2279 52.3106 45.3911 52.4497C45.7597 52.4597 46.1248 52.4623 46.4934 52.4582C46.6489 52.4573 46.6489 52.4573 46.8077 52.4564C47.0646 52.4548 47.3216 52.4523 47.5786 52.4497C47.594 52.3287 47.594 52.3287 47.6097 52.2052C47.6573 51.8393 47.7076 51.4737 47.758 51.1081C47.7741 50.9812 47.7903 50.8542 47.8069 50.7234C47.8241 50.6013 47.8412 50.4793 47.8589 50.3535C47.8815 50.1849 47.8815 50.1849 47.9045 50.0129C48.003 49.6649 48.118 49.5283 48.3989 49.3052C48.7449 49.1695 48.7449 49.1695 49.1508 49.0488C49.7449 48.8649 50.2803 48.6472 50.8342 48.3652C51.2989 48.1524 51.5029 48.0725 52.0219 48.1003C52.7387 48.4715 53.3682 48.9473 54.0043 49.4419C54.4621 49.2414 54.7826 48.9857 55.1408 48.6387C55.239 48.546 55.3372 48.4533 55.4383 48.3577C55.6699 48.0983 55.6699 48.0983 55.6471 47.8162C55.3746 47.2503 54.9382 46.7901 54.5421 46.307C54.2392 45.8259 54.194 45.6238 54.2778 45.0669C54.4428 44.6412 54.4428 44.6412 54.6623 44.2038C54.9711 43.5756 55.2104 42.9909 55.3539 42.3058C55.6486 41.8347 56.2216 41.7122 56.7357 41.5787C57.0065 41.5193 57.2776 41.4672 57.5505 41.4182C57.6907 41.3916 57.6907 41.3916 57.8338 41.3645C58.061 41.3216 58.2885 41.28 58.5161 41.2388C58.5197 40.877 58.5225 40.5153 58.5246 40.1536C58.5258 40.0504 58.5269 39.9472 58.5281 39.8409C58.5293 39.5776 58.5232 39.3144 58.5161 39.0513C58.1981 38.7332 57.3737 38.7989 56.9227 38.7557C56.8202 38.7448 56.7177 38.734 56.6122 38.7228C56.5185 38.7137 56.4249 38.7045 56.3284 38.6951C56.0072 38.6316 55.7831 38.547 55.5083 38.3677C55.3627 38.1172 55.3627 38.1172 55.2551 37.8171C55.2149 37.7088 55.1747 37.6005 55.1333 37.4889C55.0736 37.319 55.0736 37.319 55.0126 37.1457C54.9315 36.9222 54.85 36.6988 54.7681 36.4755C54.7329 36.3763 54.6977 36.2771 54.6614 36.1749C54.5468 35.8709 54.5468 35.8709 54.2778 35.4966C54.1235 34.6482 54.3319 34.2578 54.8161 33.5483C54.966 33.3442 54.966 33.3442 55.1189 33.136C55.4334 32.7096 55.4334 32.7096 55.5083 32.2153C55.2217 31.8455 55.2217 31.8455 54.8332 31.4975C54.7051 31.3756 54.577 31.2536 54.4449 31.128C54.3447 31.0356 54.2444 30.9433 54.1411 30.8481C53.5161 31.129 53.007 31.5568 52.4668 31.9723C52.0704 32.2282 51.8765 32.3438 51.4067 32.352C51.0128 32.2338 50.6442 32.0692 50.2702 31.8992C49.5151 31.5624 48.7972 31.3015 47.9887 31.1216C47.9649 30.9995 47.9649 30.9995 47.9407 30.8749C47.8688 30.507 47.7963 30.1392 47.7238 29.7715C47.6864 29.5793 47.6864 29.5793 47.6483 29.3832C47.624 29.2607 47.5998 29.1382 47.5748 29.012C47.5526 28.8989 47.5304 28.7858 47.5076 28.6692C47.4519 28.3807 47.4519 28.3807 47.3051 28.1138C46.9434 28.1101 46.5817 28.1074 46.2199 28.1052C46.0651 28.1035 46.0651 28.1035 45.9072 28.1017C45.4031 28.0502 45.4031 28.0502 44.9809 28.2505ZM11.4848 58.8755C11.0651 62.0744 11.0651 62.0744 12.0915 65.9592C12.7654 66.5345 13.2175 66.5713 14.074 66.5683C14.2005 66.5689 14.327 66.5695 14.4574 66.5702C14.8831 66.5719 15.3088 66.5717 15.7345 66.5714C16.039 66.5723 16.3435 66.5732 16.6479 66.5742C17.4765 66.5766 18.305 66.5773 19.1335 66.5775C19.8246 66.5777 20.5156 66.5787 21.2067 66.5797C22.7438 66.5818 24.2809 66.5826 25.818 66.5824C25.9564 66.5824 25.9564 66.5824 26.0975 66.5824C26.2361 66.5824 26.2361 66.5824 26.3774 66.5824C27.8741 66.5823 29.3707 66.5849 30.8673 66.5887C32.404 66.5927 33.9406 66.5945 35.4772 66.5943C36.3399 66.5942 37.2026 66.595 38.0654 66.5979C38.8768 66.6005 39.6882 66.6006 40.4997 66.5986C40.7976 66.5983 41.0956 66.5989 41.3935 66.6006C41.8001 66.6027 42.2065 66.6014 42.6131 66.5993C42.7311 66.6007 42.8492 66.6021 42.9709 66.6036C43.7032 66.5952 44.1429 66.4942 44.7075 65.9849C45.8867 63.9212 45.2543 61.2523 45.2543 58.8755C34.1104 58.8755 22.9665 58.8755 11.4848 58.8755Z" fill="white"/>
<path d="M13.7574 2.76804C13.8874 2.7673 14.0174 2.76656 14.1514 2.7658C14.5858 2.76385 15.0202 2.76482 15.4546 2.7658C15.7665 2.76502 16.0785 2.76407 16.3905 2.76295C17.2371 2.7605 18.0837 2.76066 18.9303 2.76144C19.6373 2.76186 20.3443 2.76103 21.0514 2.76021C22.8149 2.75818 24.5785 2.75867 26.342 2.76032C27.8719 2.76168 29.4018 2.75991 30.9318 2.75664C32.5044 2.7533 34.077 2.75205 35.6497 2.7529C36.5319 2.75336 37.4141 2.75303 38.2963 2.75068C39.1261 2.74857 39.9558 2.74911 40.7855 2.75168C41.0897 2.75218 41.3939 2.75176 41.698 2.75033C42.114 2.74852 42.5298 2.7501 42.9458 2.75251C43.1254 2.75054 43.1254 2.75054 43.3086 2.74854C44.5221 2.76297 45.4897 3.22361 46.3758 4.04243C47.24 5.03851 47.4611 6.11735 47.4654 7.39467C47.4663 7.511 47.4672 7.62733 47.4681 7.74719C47.4708 8.13153 47.4724 8.51587 47.4738 8.90022C47.4743 9.0316 47.4749 9.16298 47.4755 9.29834C47.4783 9.99323 47.4803 10.6881 47.4816 11.383C47.4831 12.1008 47.4878 12.8186 47.4932 13.5364C47.4968 14.0885 47.4979 14.6405 47.4984 15.1926C47.4991 15.4573 47.5007 15.7219 47.5032 15.9866C47.5065 16.3567 47.5064 16.7267 47.5055 17.0969C47.5081 17.2607 47.5081 17.2607 47.5108 17.4278C47.5059 17.9437 47.4603 18.2402 47.1808 18.68C46.8943 18.9539 46.8943 18.9539 46.6209 19.0398C46.5307 19.0368 46.4404 19.0338 46.3475 19.0308C46.2572 19.0309 46.167 19.0311 46.074 19.0313C45.8006 18.9539 45.8006 18.9539 45.2537 18.407C45.2537 16.5121 45.2537 14.6171 45.2537 12.6648C34.1098 12.6648 22.9658 12.6648 11.4842 12.6648C11.4905 15.5995 11.4969 18.5343 11.5034 21.5579C11.5062 23.4122 11.5089 25.2664 11.5109 27.1207C11.5119 28.0943 11.5131 29.068 11.5142 30.0417C11.5144 30.2247 11.5144 30.2247 11.5147 30.4115C11.517 32.3832 11.5213 34.3549 11.5264 36.3266C11.5315 38.3493 11.5345 40.3719 11.5356 42.3945C11.5364 43.6432 11.5388 44.8918 11.5432 46.1405C11.5461 46.9961 11.547 47.8516 11.5462 48.7072C11.5459 49.2013 11.5464 49.6953 11.5494 50.1893C11.5525 50.7244 11.5514 51.2594 11.5499 51.7945C11.5515 51.9514 11.5531 52.1083 11.5548 52.27C11.5537 52.413 11.5526 52.5561 11.5515 52.7034C11.5517 52.827 11.5519 52.9505 11.5521 53.0778C11.4614 53.5172 11.2868 53.6807 10.9373 53.9538C10.4588 54.0222 10.4588 54.0222 9.98027 53.9538C9.5828 53.6505 9.45529 53.4727 9.29668 52.9968C9.28387 52.7401 9.27927 52.483 9.27909 52.226C9.27843 51.9837 9.27843 51.9837 9.27775 51.7366C9.27796 51.5583 9.27818 51.3799 9.27839 51.1962C9.27814 51.0056 9.27782 50.8149 9.27746 50.6243C9.27662 50.0992 9.27664 49.574 9.2768 49.0489C9.27683 48.483 9.27607 47.9171 9.27542 47.3512C9.27429 46.2418 9.27391 45.1325 9.27384 44.0231C9.27377 43.1214 9.27349 42.2196 9.27306 41.3178C9.27185 38.7617 9.27122 36.2056 9.27132 33.6494C9.27133 33.4426 9.27133 33.4426 9.27134 33.2316C9.27135 33.0936 9.27135 32.9555 9.27136 32.8133C9.27141 30.5769 9.27011 28.3406 9.26818 26.1042C9.26621 23.8086 9.26527 21.5129 9.26539 19.2173C9.26543 17.9282 9.26506 16.6392 9.26359 15.3501C9.26234 14.2523 9.26204 13.1544 9.26297 12.0566C9.26342 11.4965 9.26343 10.9365 9.26224 10.3765C9.26116 9.86338 9.26136 9.35028 9.26255 8.83717C9.26286 8.5645 9.26183 8.29182 9.26074 8.01914C9.26655 6.5087 9.4465 5.27673 10.3904 4.05151C11.3868 3.08951 12.403 2.75879 13.7574 2.76804ZM11.7832 5.88867C11.1399 7.27696 11.4842 9.10375 11.4842 10.4773C22.6281 10.4773 33.7721 10.4773 45.2537 10.4773C45.5816 6.90248 45.5816 6.90248 44.7068 5.55541C44.0368 4.95144 43.4735 4.93021 42.6152 4.93909C42.4883 4.93824 42.3615 4.93739 42.2308 4.93651C41.8063 4.93433 41.3819 4.93605 40.9575 4.93778C40.6529 4.93703 40.3484 4.93606 40.0438 4.93487C39.217 4.93238 38.3903 4.93335 37.5635 4.93508C36.6984 4.93646 35.8333 4.93518 34.9683 4.93432C33.4225 4.93326 31.8767 4.93496 30.3309 4.93774C28.9298 4.94019 27.5288 4.93976 26.1278 4.93724C24.5001 4.93431 22.8724 4.93323 21.2447 4.93484C20.3833 4.9357 19.522 4.93581 18.6606 4.934C17.8508 4.93242 17.0411 4.93352 16.2313 4.93668C15.934 4.9374 15.6368 4.93719 15.3395 4.93599C14.9338 4.93449 14.5283 4.93637 14.1227 4.93909C14.0049 4.93787 13.8871 4.93665 13.7657 4.9354C12.8943 4.94677 12.324 5.16141 11.7832 5.88867Z" fill="white"/>
<path d="M49.5854 35.661C50.7861 36.5908 51.4578 37.7309 51.8167 39.1879C51.9662 40.8772 51.7958 42.3586 50.6898 43.7119C49.6494 44.8425 48.5336 45.6761 46.9626 45.783C45.1443 45.8328 43.6543 45.435 42.2854 44.1658C41.2458 43.0417 40.7676 41.6686 40.7334 40.1529C40.8008 38.5869 41.3685 37.3272 42.4589 36.2062C44.4919 34.3843 47.2966 34.1743 49.5854 35.661ZM43.8496 37.9638C43.2284 38.6666 42.9171 39.4792 42.93 40.4184C43.0741 41.4272 43.4997 42.3306 44.3159 42.9722C44.7534 43.286 44.7534 43.286 45.2542 43.4262C45.2562 43.2958 45.2582 43.1654 45.2602 43.0311C45.2682 42.5472 45.2787 42.0633 45.2901 41.5795C45.2946 41.3701 45.2985 41.1607 45.3016 40.9513C45.3061 40.6502 45.3133 40.3493 45.321 40.0483C45.3218 39.9547 45.3227 39.8611 45.3236 39.7647C45.3355 39.379 45.3503 39.1107 45.571 38.7875C45.9689 38.5341 46.3024 38.585 46.7581 38.641C47.1758 38.9456 47.2921 39.1121 47.3796 39.6265C47.3825 39.7955 47.3853 39.9644 47.3883 40.1385C47.3906 40.2288 47.3928 40.319 47.3951 40.412C47.4018 40.699 47.4047 40.9858 47.4075 41.2729C47.4114 41.468 47.4155 41.6631 47.4198 41.8582C47.4299 42.3352 47.4367 42.8123 47.4417 43.2895C48.2472 43.1099 48.8148 42.591 49.2746 41.9116C49.7307 41.0058 49.8239 40.0591 49.5085 39.0907C49.0989 38.1873 48.5779 37.5164 47.6473 37.1334C46.1773 36.6594 44.9841 36.8881 43.8496 37.9638Z" fill="white"/>
<path d="M31.4455 14.9886C31.7617 15.1339 31.7617 15.1339 31.9924 15.3988C32.1513 16.1012 32.1207 16.5384 31.8529 17.2027C31.7565 17.4467 31.7565 17.4467 31.6582 17.6956C31.5857 17.8724 31.5132 18.0493 31.4407 18.2261C31.3658 18.4132 31.2911 18.6005 31.2166 18.7878C31.058 19.1857 30.898 19.583 30.737 19.98C30.4903 20.5885 30.2471 21.1984 30.0047 21.8087C29.5524 22.946 29.0971 24.0821 28.6411 25.2179C28.3027 26.0609 27.9646 26.9041 27.6267 27.7473C27.511 28.0358 27.3952 28.3242 27.2794 28.6126C27.2433 28.7026 27.2072 28.7926 27.17 28.8853C27.0998 29.0604 27.0294 29.2355 26.9587 29.4105C26.7902 29.8302 26.6289 30.2512 26.4751 30.6765C26.4172 30.836 26.3594 30.9955 26.2998 31.1598C26.2503 31.3009 26.2009 31.442 26.1499 31.5873C25.9579 31.9803 25.8081 32.1382 25.4299 32.3519C24.8993 32.4182 24.5991 32.4296 24.1396 32.1468C23.8443 31.6744 23.8674 31.2489 23.926 30.7113C24.0323 30.3036 24.185 29.9215 24.3457 29.5326C24.4127 29.3639 24.4127 29.3639 24.4811 29.1918C24.6288 28.8215 24.7791 28.4524 24.9295 28.0832C25.034 27.8226 25.1383 27.5619 25.2425 27.3012C25.5175 26.6142 25.7947 25.9281 26.0725 25.2422C26.3502 24.5552 26.6261 23.8675 26.902 23.1797C27.2204 22.386 27.5392 21.5924 27.8598 20.7996C28.2877 19.7411 28.7142 18.6829 29.116 17.6141C29.1722 17.4652 29.2284 17.3164 29.2864 17.163C29.3827 16.9056 29.4774 16.6475 29.5698 16.3887C29.916 15.4633 30.3571 14.8265 31.4455 14.9886Z" fill="white"/>
<path d="M21.7381 18.27C22.1854 18.5936 22.3816 18.8031 22.5243 19.3381C22.2499 20.5041 20.8606 21.488 20.0377 22.3032C19.9116 22.4287 19.7855 22.5542 19.6556 22.6834C19.3475 22.9899 19.039 23.2961 18.7303 23.602C19.5064 24.5417 20.3692 25.3817 21.2409 26.232C21.3535 26.3431 21.4662 26.4542 21.5822 26.5687C21.6844 26.6686 21.7865 26.7684 21.8918 26.8713C22.3037 27.3296 22.4288 27.5683 22.3961 28.1906C22.285 28.6606 22.285 28.6606 22.1397 28.9255C21.6864 29.1741 21.271 29.1928 20.7811 29.0708C20.364 28.802 20.0323 28.4684 19.6873 28.1137C19.5647 27.9958 19.5647 27.9958 19.4395 27.8755C18.9524 27.4037 18.5096 26.9036 18.0702 26.3877C17.828 26.1228 17.5817 25.8749 17.3225 25.6272C17.202 25.511 17.202 25.511 17.0791 25.3925C16.9179 25.2382 16.7554 25.0854 16.5913 24.9342C16.2257 24.5827 16.0183 24.3501 15.8496 23.8637C15.8716 22.953 16.6615 22.3395 17.2627 21.728C17.36 21.6288 17.4573 21.5297 17.5576 21.4275C17.7631 21.2188 17.969 21.0105 18.1754 20.8025C18.4902 20.4839 18.8017 20.1622 19.1132 19.8404C19.3137 19.6377 19.5143 19.4352 19.7151 19.2329C19.8076 19.1363 19.9 19.0398 19.9953 18.9403C20.5616 18.3792 20.9008 18.1199 21.7381 18.27Z" fill="white"/>
<path d="M35.4272 18.1592C36.616 18.4084 37.4472 19.6102 38.2252 20.4842C38.5842 20.8853 38.9538 21.267 39.344 21.638C39.4314 21.7218 39.5188 21.8056 39.6088 21.8919C39.7795 22.0544 39.9519 22.2152 40.126 22.3741C40.5282 22.7591 40.7241 22.9997 40.8992 23.5398C40.8576 24.5088 40.0457 25.1581 39.391 25.8053C39.3014 25.8948 39.2118 25.9844 39.1195 26.0767C38.9311 26.2646 38.7424 26.4522 38.5534 26.6395C38.2634 26.927 37.9745 27.2156 37.6858 27.5044C37.5023 27.6872 37.3188 27.8699 37.1352 28.0526C37.0486 28.139 36.962 28.2255 36.8728 28.3145C36.7924 28.394 36.7121 28.4734 36.6293 28.5553C36.5587 28.6254 36.4881 28.6955 36.4154 28.7677C36.0207 29.1233 35.6423 29.1093 35.1239 29.0999C34.8633 29.071 34.8633 29.071 34.5984 28.9172C34.3891 28.5479 34.3334 28.2652 34.3164 27.8406C34.6036 27.2548 35.0235 26.824 35.4844 26.3725C35.5566 26.3006 35.6289 26.2287 35.7033 26.1547C35.9325 25.927 36.1627 25.7003 36.3928 25.4736C36.5491 25.3187 36.7053 25.1638 36.8615 25.0087C37.2429 24.6303 37.6251 24.2528 38.0078 23.8757C37.79 23.3391 37.4406 23.0079 37.0294 22.6068C36.9607 22.5391 36.8919 22.4714 36.8211 22.4016C36.6021 22.1859 36.3822 21.9712 36.1621 21.7566C35.8722 21.474 35.5832 21.1905 35.2948 20.9064C35.1662 20.781 35.0377 20.6556 34.9052 20.5264C34.6306 20.2286 34.4525 20.0149 34.3164 19.6375C34.3364 19.1588 34.4041 18.8888 34.6753 18.4924C35 18.2703 35 18.2703 35.4272 18.1592Z" fill="white"/>
<path d="M24.3489 61.9691C24.4454 61.9686 24.542 61.9681 24.6415 61.9676C24.9599 61.9665 25.2783 61.9684 25.5967 61.9704C25.8184 61.9704 26.0401 61.9704 26.2617 61.9702C26.7261 61.9702 27.1903 61.9716 27.6547 61.9741C28.2496 61.9772 28.8444 61.9772 29.4393 61.9763C29.897 61.9759 30.3546 61.9768 30.8123 61.9781C31.0316 61.9786 31.251 61.9788 31.4703 61.9786C31.777 61.9785 32.0836 61.9803 32.3902 61.9825C32.6519 61.9834 32.6519 61.9834 32.9188 61.9844C33.3344 62.018 33.5635 62.0656 33.9067 62.2935C34.1913 62.6594 34.1795 62.8564 34.163 63.3274C34.0434 63.7974 34.0434 63.7974 33.8246 64.0284C33.3708 64.2762 33.0179 64.2606 32.5018 64.2628C32.353 64.2642 32.353 64.2642 32.2012 64.2656C31.8739 64.2681 31.5466 64.2676 31.2193 64.2668C30.9915 64.2674 30.7637 64.2682 30.5359 64.269C30.0587 64.2702 29.5815 64.2699 29.1044 64.2685C28.4929 64.2669 27.8815 64.2697 27.27 64.2737C26.7997 64.2762 26.3294 64.2762 25.859 64.2754C25.6336 64.2754 25.4081 64.2762 25.1827 64.2779C24.8675 64.2799 24.5525 64.2785 24.2373 64.2761C24.058 64.2761 23.8787 64.2761 23.694 64.2761C23.1702 64.1965 23.0131 64.0752 22.6957 63.6607C22.5327 63.2996 22.5496 63.1488 22.653 62.7634C23.0568 62.0135 23.5353 61.9687 24.3489 61.9691Z" fill="white"/>
<path d="M29.2662 6.57165C29.4004 6.57081 29.5345 6.56996 29.6728 6.56909C29.9563 6.56812 30.2398 6.56855 30.5233 6.57029C30.9567 6.57218 31.3897 6.56753 31.823 6.56231C32.0987 6.56218 32.3743 6.56243 32.65 6.56311C32.7793 6.5613 32.9087 6.55948 33.0419 6.55762C33.6694 6.56648 33.9543 6.58177 34.468 6.9701C34.727 7.33269 34.727 7.33269 34.7953 7.75139C34.7205 8.19111 34.6302 8.38646 34.3168 8.69987C33.9439 8.82418 33.7158 8.85569 33.3313 8.86079C33.1581 8.86343 33.1581 8.86343 32.9814 8.86611C32.7949 8.86763 32.7949 8.86763 32.6046 8.86917C32.4763 8.87027 32.348 8.87138 32.2159 8.87251C31.9444 8.87441 31.673 8.87587 31.4015 8.87695C30.9868 8.8793 30.5722 8.88531 30.1576 8.89133C29.8937 8.89272 29.6299 8.89388 29.3661 8.89481C29.2423 8.8972 29.1185 8.89959 28.991 8.90206C28.414 8.90008 28.1084 8.88653 27.6077 8.57661C27.3235 8.26726 27.2535 8.15571 27.2672 7.74284C27.2671 7.65261 27.2669 7.56237 27.2667 7.46941C27.5486 6.47416 28.4086 6.56717 29.2662 6.57165Z" fill="white"/>
</svg>
