<svg width="60" height="61" viewBox="0 0 60 61" fill="none" xmlns="http://www.w3.org/2000/svg">
<g clip-path="url(#clip0_695_1059)">
<path d="M7.05381 1.32602C7.17549 1.32541 7.17549 1.32541 7.29963 1.32478C7.57067 1.32369 7.84168 1.32426 8.11272 1.32483C8.30933 1.32439 8.50594 1.32385 8.70254 1.32322C9.24223 1.32179 9.78191 1.32182 10.3216 1.3221C10.9039 1.32214 11.4862 1.32085 12.0684 1.31974C13.209 1.31779 14.3495 1.31715 15.4901 1.31702C16.4172 1.31691 17.3443 1.31642 18.2714 1.31568C20.8999 1.31362 23.5285 1.31254 26.157 1.31271C26.3696 1.31273 26.3696 1.31273 26.5864 1.31274C26.7992 1.31275 26.7992 1.31275 27.0163 1.31277C29.3158 1.31286 31.6152 1.31062 33.9147 1.30732C36.2758 1.30395 38.6369 1.30233 40.9981 1.30253C42.3236 1.30261 43.6492 1.30197 44.9748 1.29945C46.1033 1.29731 47.2319 1.2968 48.3604 1.29839C48.9361 1.29916 49.5118 1.29917 50.0875 1.29714C50.6148 1.2953 51.1421 1.29563 51.6695 1.29767C51.8599 1.29803 52.0504 1.29761 52.2408 1.2963C53.639 1.28734 54.7578 1.42088 55.81 2.41132C56.5164 3.21355 56.7332 4.00508 56.7348 5.05714C56.7351 5.1334 56.7354 5.20967 56.7356 5.28825C56.7364 5.54417 56.7364 5.80009 56.7363 6.05602C56.7367 6.24122 56.7371 6.42643 56.7376 6.61163C56.7388 7.12089 56.7392 7.63014 56.7395 8.1394C56.74 8.68853 56.7411 9.23767 56.7422 9.7868C56.7445 11.113 56.7456 12.4393 56.7467 13.7655C56.7472 14.3902 56.7478 15.0148 56.7485 15.6394C56.7504 17.716 56.7521 19.7925 56.753 21.869C56.7532 22.4078 56.7534 22.9466 56.7537 23.4853C56.7537 23.6192 56.7538 23.7531 56.7538 23.8911C56.7548 26.0605 56.7578 28.2299 56.7616 30.3994C56.7655 32.6269 56.7676 34.8544 56.7679 37.0819C56.7682 38.3325 56.7692 39.5831 56.7722 40.8337C56.7748 41.8986 56.7757 42.9636 56.7746 44.0286C56.774 44.5718 56.7743 45.115 56.7765 45.6582C56.7786 46.156 56.7785 46.6537 56.7767 47.1515C56.7764 47.3311 56.7769 47.5107 56.7783 47.6902C56.7882 49.0572 56.6531 50.2805 55.6717 51.3105C54.7711 52.0628 53.834 52.2347 52.6921 52.227C52.5993 52.2268 52.5065 52.2267 52.4109 52.2265C52.116 52.2258 51.8211 52.2244 51.5262 52.2229C51.3256 52.2223 51.1251 52.2217 50.9245 52.2213C50.4341 52.22 49.9438 52.218 49.4535 52.2155C49.4559 52.3401 49.4584 52.4647 49.4609 52.5931C49.4695 53.0611 49.4748 53.5292 49.4792 53.9972C49.4815 54.1987 49.4847 54.4002 49.4888 54.6017C49.5232 56.3392 49.3282 57.7663 48.0953 59.0962C46.9153 60.1873 45.5136 60.4552 43.9598 60.4492C43.8354 60.4497 43.711 60.4501 43.5828 60.4506C43.168 60.4518 42.7533 60.4513 42.3385 60.4509C42.0402 60.4514 41.742 60.452 41.4438 60.4527C40.719 60.4541 39.9942 60.4544 39.2694 60.4541C38.68 60.4539 38.0906 60.4541 37.5012 60.4546C37.4171 60.4547 37.3331 60.4547 37.2465 60.4548C37.0757 60.4549 36.9049 60.4551 36.7342 60.4552C35.1344 60.4565 33.5347 60.4563 31.935 60.4555C30.4734 60.4549 29.0118 60.4562 27.5502 60.4585C26.0473 60.4608 24.5444 60.4617 23.0414 60.4613C22.1985 60.4611 21.3556 60.4613 20.5127 60.463C19.7199 60.4645 18.9272 60.4642 18.1344 60.4627C17.8439 60.4624 17.5534 60.4628 17.263 60.4637C16.8655 60.465 16.4681 60.464 16.0706 60.4625C15.9565 60.4634 15.8424 60.4642 15.7249 60.4651C14.2443 60.4536 12.9712 59.9919 11.8656 58.9978C10.5593 57.6019 10.5123 55.8744 10.5326 54.0832C10.5337 53.9017 10.5348 53.7202 10.5358 53.5387C10.5383 53.0976 10.5424 52.6566 10.5472 52.2155C10.4262 52.218 10.3051 52.2205 10.1804 52.223C9.72547 52.2316 9.27055 52.2369 8.81557 52.2413C8.61975 52.2436 8.42394 52.2468 8.22814 52.2509C6.73911 52.2812 5.44308 52.2409 4.30376 51.1531C3.62876 50.3954 3.38471 49.7633 3.38271 48.7539C3.3824 48.6767 3.38209 48.5996 3.38177 48.5201C3.38087 48.2604 3.3808 48.0008 3.38073 47.7411C3.38026 47.5535 3.37974 47.3659 3.37917 47.1783C3.37777 46.6619 3.37711 46.1455 3.37657 45.629C3.37588 45.0724 3.37452 44.5158 3.37326 43.9591C3.37039 42.6144 3.36867 41.2697 3.36716 39.925C3.36672 39.5452 3.36626 39.1654 3.36578 38.7856C3.36282 36.4276 3.36024 34.0695 3.35878 31.7114C3.35844 31.1652 3.35809 30.619 3.35774 30.0728C3.35765 29.9371 3.35756 29.8013 3.35747 29.6614C3.35599 27.462 3.3521 25.2626 3.34721 23.0631C3.34224 20.8053 3.33948 18.5475 3.33887 16.2896C3.33847 15.0218 3.33709 13.754 3.33323 12.4862C3.32995 11.4065 3.32866 10.3269 3.32997 9.24722C3.33058 8.69643 3.33024 8.14569 3.32734 7.59491C3.32471 7.09031 3.32479 6.58579 3.32701 6.0812C3.32734 5.89902 3.32669 5.71684 3.32493 5.53467C3.31541 4.48467 3.39513 3.65979 3.9847 2.76242C4.0548 2.65366 4.12489 2.54489 4.19711 2.43283C4.99876 1.63118 5.9264 1.32732 7.05381 1.32602ZM5.3201 3.43079C3.62285 5.69203 4.80502 9.73236 4.80502 11.7859C21.4726 11.7859 38.1402 11.7859 55.3128 11.7859C55.7799 8.5677 55.7799 8.5677 54.7722 3.45135C54.7065 3.40045 54.6408 3.34954 54.5731 3.29709C54.5083 3.24407 54.4435 3.19104 54.3767 3.13641C53.8103 2.80098 53.2714 2.73303 52.6222 2.73227C52.5426 2.73186 52.4629 2.73145 52.3809 2.73103C52.1142 2.72994 51.8475 2.73051 51.5808 2.73108C51.3876 2.73064 51.1944 2.7301 51.0012 2.72947C50.4704 2.72804 49.9396 2.72807 49.4087 2.72835C48.8362 2.72839 48.2637 2.7271 47.6911 2.72599C46.5695 2.72404 45.4478 2.7234 44.3262 2.72327C43.4145 2.72316 42.5028 2.72267 41.5912 2.72193C39.0067 2.71987 36.4223 2.71879 33.8378 2.71896C33.6985 2.71897 33.5591 2.71898 33.4156 2.71899C33.2063 2.719 33.2063 2.719 32.9928 2.71902C30.7315 2.71911 28.4703 2.71687 26.209 2.71357C23.8875 2.7102 21.5659 2.70858 19.2444 2.70878C17.9409 2.70886 16.6374 2.70822 15.3339 2.7057C14.2241 2.70356 13.1144 2.70305 12.0046 2.70464C11.4384 2.70541 10.8723 2.70542 10.3061 2.70339C9.78754 2.70155 9.26906 2.70188 8.75054 2.70392C8.56317 2.70428 8.3758 2.70386 8.18843 2.70255C6.62177 2.66468 6.62177 2.66468 5.3201 3.43079ZM4.80502 13.3093C4.79776 19.2116 4.79051 25.1139 4.78304 31.195C4.77984 33.0607 4.77664 34.9265 4.77334 36.8487C4.77217 38.5168 4.77217 38.5168 4.77146 40.1849C4.77113 40.9296 4.76984 41.6743 4.7679 42.419C4.76566 43.2774 4.76464 44.1359 4.76513 44.9944C4.76534 45.4338 4.765 45.8731 4.7631 46.3124C4.76108 46.7825 4.76177 47.2526 4.76274 47.7228C4.76171 47.8602 4.76069 47.9976 4.75964 48.1392C4.76395 48.919 4.80339 49.4966 5.36211 50.0901C5.43206 50.1462 5.502 50.2022 5.57406 50.26C5.6443 50.3175 5.71455 50.3751 5.78692 50.4344C6.22814 50.7608 6.65508 50.707 7.18264 50.7035C7.27855 50.7034 7.37446 50.7032 7.47327 50.703C7.78015 50.7024 8.08701 50.7009 8.39388 50.6994C8.60171 50.6988 8.80953 50.6983 9.01736 50.6978C9.52731 50.6965 10.0373 50.6945 10.5472 50.6921C10.5479 50.6203 10.5486 50.5486 10.5493 50.4747C10.5568 49.7217 10.5667 48.9688 10.578 48.2159C10.5818 47.9356 10.5851 47.6554 10.5878 47.3751C10.5918 46.9701 10.5979 46.5652 10.6044 46.1602C10.6052 46.0368 10.6059 45.9133 10.6067 45.7861C10.6379 44.1776 11.0242 42.7741 12.2025 41.632C13.3355 40.6866 14.6223 40.4829 16.0509 40.4727C16.1527 40.4716 16.2546 40.4704 16.3595 40.4692C16.6936 40.4655 17.0278 40.4626 17.3619 40.4597C17.5946 40.4573 17.8273 40.4548 18.0599 40.4523C18.6704 40.4459 19.2809 40.4401 19.8915 40.4344C20.625 40.4275 21.3585 40.4197 22.092 40.4121C23.2047 40.4007 24.3173 40.3902 25.43 40.3796C25.43 37.0925 25.43 33.8054 25.43 30.4187C24.8113 30.3413 24.1925 30.264 23.555 30.1843C22.6427 29.7446 22.263 29.2523 21.9144 28.3093C21.6545 27.4424 21.7408 26.564 22.0723 25.7298C22.4876 24.9788 23.0926 24.3657 23.6722 23.739C23.8555 23.5365 24.0386 23.3339 24.2215 23.1311C24.3055 23.0386 24.3895 22.9462 24.476 22.8509C24.7417 22.5503 24.9948 22.2419 25.2469 21.9299C25.6989 21.3709 26.1755 20.841 26.6637 20.3135C26.9539 19.9885 27.2206 19.6517 27.4881 19.3078C28.0278 18.639 28.6596 18.0394 29.5316 17.8796C30.2444 17.8099 30.9046 17.8499 31.5238 18.2312C32.2641 18.8585 32.8717 19.6022 33.4752 20.3579C33.77 20.716 34.0788 21.0561 34.3949 21.3952C34.8946 21.9322 35.3616 22.4876 35.8213 23.0597C36.1252 23.4248 36.444 23.7724 36.7679 24.1198C37.6869 25.111 38.2982 25.9784 38.3206 27.3718C38.2386 28.3514 37.8927 29.1492 37.1634 29.8181C36.3683 30.3588 35.6662 30.3297 34.6878 30.4187C34.6878 33.7058 34.6878 36.9929 34.6878 40.3796C35.7907 40.3862 35.7907 40.3862 36.9158 40.3929C37.3841 40.3964 37.8525 40.4001 38.3209 40.4041C39.0628 40.4104 39.8046 40.4164 40.5465 40.4202C41.1453 40.4233 41.744 40.428 42.3428 40.4339C42.5702 40.4358 42.7975 40.4372 43.0249 40.4379C44.7964 40.4442 46.5111 40.4505 47.93 41.6687C48.8127 42.6641 49.3384 43.6713 49.3603 45.0114C49.3627 45.1381 49.365 45.2647 49.3674 45.3952C49.3703 45.5983 49.3703 45.5983 49.3733 45.8055C49.3758 45.9451 49.3782 46.0847 49.3807 46.2286C49.3884 46.674 49.3953 47.1193 49.4022 47.5647C49.4072 47.8669 49.4124 48.1691 49.4175 48.4713C49.4301 49.2115 49.442 49.9518 49.4535 50.6921C50.0559 50.7037 50.6583 50.7122 51.2609 50.7179C51.4656 50.7202 51.6703 50.7234 51.875 50.7275C52.1703 50.7332 52.4655 50.7358 52.7608 50.7379C52.8514 50.7403 52.942 50.7427 53.0354 50.7452C53.6924 50.7455 54.0658 50.5939 54.6097 50.2234C54.8151 50.0306 54.8151 50.0306 54.9466 49.8205C54.9922 49.7554 55.0379 49.6903 55.0849 49.6232C55.3135 49.1687 55.3275 48.6914 55.3272 48.1905C55.3275 48.0656 55.3277 47.9407 55.328 47.812C55.3276 47.6756 55.3273 47.5392 55.3269 47.3986C55.327 47.2535 55.3271 47.1083 55.3272 46.9588C55.3274 46.5554 55.327 46.1521 55.3264 45.7487C55.3259 45.3073 55.3261 44.8658 55.3262 44.4243C55.3262 43.5672 55.3257 42.7102 55.3249 41.8531C55.3241 40.8618 55.324 39.8704 55.3239 38.8791C55.3233 36.2616 55.3217 33.6441 55.3202 31.0266C55.3177 25.1799 55.3153 19.3332 55.3128 13.3093C38.6453 13.3093 21.9777 13.3093 4.80502 13.3093ZM29.18 19.5202C28.8847 19.7895 28.8847 19.7895 28.6161 20.1062C28.4645 20.2784 28.4645 20.2784 28.3098 20.4541C27.9401 20.8895 27.5794 21.3316 27.2208 21.7761C26.8526 22.22 26.4614 22.6409 26.0709 23.0652C25.697 23.4816 25.3479 23.9157 24.997 24.3515C24.6179 24.8076 24.2148 25.2397 23.8086 25.6717C23.2671 26.2992 23.1454 26.7114 23.1696 27.5288C23.2254 28.0424 23.3837 28.3902 23.7681 28.7345C24.0616 28.919 24.2262 28.9412 24.5699 28.947C24.6725 28.9501 24.7752 28.9532 24.8809 28.9563C24.9872 28.9579 25.0935 28.9595 25.203 28.9611C25.4143 28.9652 25.6257 28.9702 25.837 28.9763C25.977 28.9784 25.977 28.9784 26.1199 28.9806C26.3675 29.0124 26.3675 29.0124 26.7191 29.2468C26.7561 29.6039 26.7703 29.9377 26.7697 30.2954C26.7709 30.404 26.7721 30.5126 26.7734 30.6245C26.7769 30.9847 26.778 31.3448 26.779 31.705C26.781 31.9543 26.7831 32.2035 26.7854 32.4528C26.791 33.1097 26.7945 33.7667 26.7975 34.4236C26.8016 35.2114 26.8083 35.9992 26.8146 36.7869C26.8238 37.9845 26.8297 39.182 26.8363 40.3796C28.9245 40.3796 31.0128 40.3796 33.1644 40.3796C33.1688 39.5885 33.1732 38.7974 33.1777 37.9823C33.1812 37.4819 33.1849 36.9815 33.1889 36.4811C33.1953 35.6863 33.2012 34.8916 33.205 34.0969C33.208 33.4563 33.2128 32.8158 33.2187 32.1753C33.2206 31.9306 33.222 31.6859 33.2227 31.4412C33.2238 31.0991 33.2271 30.7571 33.2309 30.4151C33.2307 30.2625 33.2307 30.2625 33.2304 30.1068C33.2413 29.4137 33.2413 29.4137 33.445 29.162C33.6929 28.9649 33.8414 28.9708 34.1554 28.973C34.3076 28.9708 34.3076 28.9708 34.4628 28.9685C34.6749 28.9685 34.887 28.9694 35.0991 28.9712C35.617 28.962 35.9813 28.9497 36.393 28.6146C36.8683 28.109 36.9385 27.7297 36.957 27.039C36.8323 26.2976 36.3279 25.7732 35.8451 25.2331C35.743 25.1172 35.743 25.1172 35.6389 24.9989C35.1747 24.4724 34.7031 23.9525 34.2314 23.4327C33.9674 23.1334 33.7156 22.8263 33.4647 22.5158C33.0074 21.9508 32.5271 21.4123 32.0351 20.8775C31.7207 20.534 31.4145 20.1841 31.1104 19.8315C30.7493 19.4132 30.7493 19.4132 30.2567 19.1833C29.7884 19.165 29.5825 19.284 29.18 19.5202ZM12.9642 42.7966C12.8932 42.8658 12.8222 42.935 12.749 43.0063C12.1724 43.8397 12.0009 44.6854 12.01 45.6821C12.0092 45.7958 12.0083 45.9096 12.0075 46.0268C12.0055 46.399 12.0068 46.7712 12.0084 47.1435C12.0081 47.4044 12.0076 47.6653 12.007 47.9262C12.0063 48.4715 12.0073 49.0168 12.0095 49.5621C12.0122 50.2587 12.0107 50.9553 12.0079 51.6519C12.0062 52.1902 12.0067 52.7285 12.0079 53.2667C12.0082 53.5235 12.0078 53.7803 12.0068 54.0371C12.0056 54.3968 12.0074 54.7564 12.01 55.1162C12.009 55.2208 12.0081 55.3254 12.0071 55.4332C12.0187 56.306 12.2469 57.0743 12.7532 57.792C12.8252 57.8612 12.8973 57.9304 12.9715 58.0017C13.0421 58.0727 13.1126 58.1437 13.1853 58.2168C14.0275 58.8223 14.8046 58.9639 15.8258 58.9548C15.9523 58.9555 16.0788 58.9562 16.2091 58.957C16.631 58.9588 17.0527 58.9574 17.4745 58.9559C17.7778 58.9565 18.081 58.9574 18.3843 58.9584C19.1212 58.9604 19.8581 58.96 20.595 58.9586C21.1942 58.9576 21.7933 58.9574 22.3925 58.958C22.5206 58.9581 22.5206 58.9581 22.6513 58.9582C22.8248 58.9583 22.9984 58.9585 23.1719 58.9586C24.7976 58.96 26.4232 58.9584 28.0489 58.9559C29.4424 58.9538 30.836 58.9542 32.2295 58.9563C33.8495 58.9589 35.4695 58.9598 37.0895 58.9584C37.2624 58.9582 37.4353 58.9581 37.6082 58.958C37.6933 58.9579 37.7783 58.9578 37.8659 58.9577C38.4641 58.9573 39.0622 58.958 39.6603 58.9591C40.466 58.9606 41.2716 58.9595 42.0773 58.9568C42.3728 58.9562 42.6683 58.9564 42.9637 58.9574C43.3675 58.9587 43.7711 58.9571 44.1748 58.9548C44.2914 58.9558 44.408 58.9568 44.5281 58.9579C45.5521 58.9465 46.3973 58.6348 47.1601 57.9394C47.713 57.2902 48.06 56.4606 48.0637 55.6072C48.0643 55.5135 48.065 55.4199 48.0657 55.3235C48.0658 55.2218 48.066 55.1201 48.0661 55.0154C48.0667 54.9075 48.0672 54.7996 48.0678 54.6884C48.0696 54.3313 48.0704 53.9743 48.071 53.6172C48.0717 53.3685 48.0724 53.1197 48.073 52.871C48.0743 52.349 48.0749 51.8271 48.0754 51.3052C48.076 50.6385 48.0788 49.9718 48.0821 49.3051C48.0843 48.791 48.0849 48.2769 48.0851 47.7627C48.0855 47.5171 48.0864 47.2714 48.088 47.0258C48.09 46.6808 48.0897 46.336 48.089 45.991C48.0901 45.8908 48.0911 45.7906 48.0922 45.6873C48.0839 44.4714 47.7459 43.4662 46.8753 42.6062C45.6174 41.6017 44.0159 41.8058 42.4988 41.8158C42.1969 41.8152 41.8949 41.8143 41.593 41.8132C40.8605 41.811 40.1281 41.8125 39.3956 41.8154C38.5415 41.8186 37.6873 41.8182 36.8332 41.8177C35.3086 41.8169 33.7841 41.8196 32.2595 41.8242C30.7823 41.8287 29.305 41.8304 27.8278 41.8291C26.2164 41.8276 24.6049 41.8277 22.9935 41.8303C22.8215 41.8306 22.6495 41.8309 22.4775 41.8312C22.3929 41.8313 22.3083 41.8315 22.2211 41.8316C21.6266 41.8325 21.032 41.8324 20.4375 41.832C19.6366 41.8314 18.8358 41.8335 18.0349 41.8372C17.7414 41.8382 17.4478 41.8384 17.1543 41.8377C16.7529 41.8369 16.3516 41.8391 15.9503 41.8419C15.777 41.8406 15.777 41.8406 15.6001 41.8393C14.6322 41.8514 13.6616 42.0809 12.9642 42.7966Z" fill="white" stroke="white" stroke-width="0.3"/>
<path d="M24.375 44.2465C24.6094 44.4808 24.6094 44.4808 24.6597 44.8695C24.5963 45.4135 24.4533 45.5341 24.0381 45.8798C23.9796 45.9295 23.9212 45.9792 23.8609 46.0304C23.6829 46.1805 23.5016 46.3268 23.3203 46.473C23.2209 46.5543 23.1215 46.6356 23.0191 46.7193C22.8286 46.8731 22.6371 47.0257 22.4446 47.1771C22.1305 47.4247 21.8206 47.677 21.5112 47.9306C21.3506 48.0622 21.3506 48.0622 21.1867 48.1965C20.9671 48.3767 20.7477 48.5571 20.5284 48.7376C19.8653 49.2823 19.1963 49.8176 18.5156 50.3402C18.8807 50.7137 19.2513 51.0604 19.6582 51.3876C19.8259 51.5233 19.8259 51.5233 19.9969 51.6618C20.059 51.7119 20.121 51.7621 20.1849 51.8137C20.5873 52.1406 20.9868 52.4712 21.3867 52.8012C21.9542 53.2691 22.5227 53.7359 23.0933 54.2001C23.1922 54.2815 23.2912 54.3629 23.3931 54.4468C23.5791 54.5998 23.7662 54.7515 23.9543 54.9018C24.0828 55.0077 24.0828 55.0077 24.2139 55.1156C24.2879 55.1754 24.3619 55.2353 24.4382 55.2969C24.6608 55.5564 24.7046 55.7433 24.7266 56.0824C24.4849 56.4193 24.4849 56.4193 24.1406 56.6683C23.4882 56.661 23.1329 56.3444 22.6758 55.9213C22.5308 55.7919 22.3855 55.6628 22.24 55.534C22.1664 55.4686 22.0929 55.4033 22.0171 55.3359C21.6805 55.044 21.3295 54.7721 20.9766 54.5004C20.3339 54.0028 19.714 53.4836 19.0997 52.9515C18.6989 52.6048 18.2935 52.2666 17.8784 51.9369C17.787 51.8638 17.6956 51.7907 17.6015 51.7153C17.4328 51.5823 17.2622 51.4516 17.0897 51.3235C16.5464 50.9028 16.5464 50.9028 16.4355 50.4501C16.5499 50.002 16.768 49.8066 17.1094 49.5199C17.1807 49.454 17.252 49.3882 17.3254 49.3203C17.912 48.7819 18.5298 48.2913 19.1584 47.8038C19.6692 47.4054 20.1645 46.9922 20.6543 46.5683C23.5878 44.03 23.5878 44.03 24.375 44.2465Z" fill="white" stroke="white" stroke-width="0.3"/>
<path d="M36.4443 44.2466C36.727 44.4254 36.9612 44.5962 37.2134 44.8106C37.2842 44.8685 37.355 44.9264 37.428 44.986C37.6486 45.1674 37.867 45.3511 38.085 45.5357C38.1527 45.5926 38.2204 45.6495 38.2902 45.7081C38.6126 45.9791 38.9338 46.2514 39.2541 46.5249C39.6607 46.869 40.0751 47.2019 40.4923 47.5329C40.9113 47.8665 41.3251 48.2063 41.7388 48.5464C41.968 48.734 42.1982 48.9203 42.4291 49.1058C42.5449 49.199 42.6606 49.2922 42.7798 49.3882C42.8851 49.4725 42.9904 49.5568 43.0988 49.6436C43.3584 49.8716 43.3584 49.8716 43.5928 50.2232C43.5895 50.6995 43.5174 50.8818 43.1886 51.2316C43.0636 51.3344 42.937 51.4351 42.8091 51.5342C42.7412 51.5892 42.6733 51.6442 42.6033 51.7008C42.3878 51.8744 42.1703 52.0451 41.9521 52.2153C41.8146 52.3235 41.6772 52.4317 41.5397 52.5399C41.3351 52.7006 41.1302 52.8611 40.9248 53.0209C40.4566 53.3859 40.0007 53.7628 39.5498 54.1489C39.0167 54.6049 38.4754 55.0484 37.9238 55.4819C37.8583 55.5335 37.7929 55.5851 37.7254 55.6383C37.5339 55.7879 37.341 55.9355 37.1475 56.0825C37.0758 56.1379 37.0041 56.1934 36.9303 56.2504C36.3722 56.6693 36.3722 56.6693 35.939 56.6611C35.624 56.5513 35.624 56.5513 35.3896 56.3169C35.3384 55.9873 35.3384 55.9873 35.3896 55.6138C35.8079 55.1506 36.2846 54.7505 36.7593 54.3467C36.8316 54.2849 36.9039 54.2232 36.9785 54.1595C37.4797 53.7333 37.9882 53.3175 38.5043 52.9093C38.9221 52.5777 39.3341 52.2392 39.7457 51.8999C39.977 51.7112 40.2103 51.5249 40.4452 51.3406C40.563 51.2473 40.6808 51.1541 40.8022 51.0581C40.9103 50.9738 41.0183 50.8895 41.1295 50.8027C41.2076 50.7275 41.2857 50.6522 41.3662 50.5747C41.3662 50.4587 41.3662 50.3427 41.3662 50.2232C41.1229 49.9809 41.1229 49.9809 40.8022 49.7398C40.6843 49.6464 40.5663 49.553 40.4447 49.4569C40.3234 49.3617 40.2021 49.2665 40.0771 49.1685C39.8619 48.9932 39.647 48.8175 39.4326 48.6411C39.2731 48.5106 39.2731 48.5106 39.1104 48.3775C38.1436 47.5864 38.1436 47.5864 37.8231 47.3241C37.6023 47.1436 37.3814 46.9632 37.1603 46.7831C36.9417 46.6048 36.7236 46.4258 36.5061 46.2461C36.3224 46.0962 36.1363 45.9491 35.9467 45.8066C35.5887 45.53 35.4053 45.3809 35.3164 44.9277C35.3896 44.5982 35.3896 44.5982 35.5215 44.3784C35.8511 44.1806 36.0634 44.2037 36.4443 44.2466Z" fill="white" stroke="white" stroke-width="0.3"/>
<path d="M29.0661 4.88179C29.7255 5.5203 30.1273 6.32003 30.1473 7.23744C30.1276 8.24403 29.7944 8.95511 29.0981 9.6819C28.3953 10.2796 27.5983 10.4654 26.688 10.423C25.7113 10.2903 25.0697 9.90506 24.4496 9.14082C23.9865 8.45008 23.7927 7.6902 23.9071 6.86391C24.0924 5.98664 24.4777 5.18896 25.2433 4.68724C26.5145 4.0201 27.8785 4.0051 29.0661 4.88179ZM25.5551 6.41713C25.3355 6.99818 25.3274 7.5571 25.5697 8.131C25.9392 8.57695 26.2508 8.86325 26.8295 8.96596C27.3123 9.00226 27.6045 8.90016 28.0087 8.62172C28.3722 8.29768 28.5578 8.11542 28.6473 7.63707C28.6693 7.13224 28.622 6.80476 28.4042 6.34389C27.9828 5.88922 27.6338 5.71889 27.0199 5.64076C26.3938 5.71766 25.9819 5.93522 25.5551 6.41713Z" fill="white" stroke="white" stroke-width="0.3"/>
<path d="M21.5734 4.90584C22.1893 5.45738 22.5613 6.08728 22.6468 6.91863C22.6908 7.92781 22.4674 8.78297 21.7821 9.54436C21.0377 10.2143 20.1708 10.4661 19.1797 10.4242C18.3161 10.3003 17.5705 9.85499 16.9921 9.20745C16.4501 8.4579 16.3226 7.57623 16.4496 6.67098C16.6764 5.75383 17.2005 5.18335 17.9149 4.59319C19.1368 3.95779 20.4643 4.08004 21.5734 4.90584ZM18.12 6.48284C17.8869 6.94905 17.8275 7.29008 17.9296 7.8012C18.1675 8.25158 18.4121 8.61579 18.8671 8.85589C19.5392 9.02393 19.9401 8.99513 20.5434 8.64852C20.9618 8.34485 21.0665 8.01437 21.2035 7.5302C21.213 6.96777 21.0807 6.60786 20.7421 6.16057C20.3687 5.83149 19.9985 5.7026 19.5043 5.63323C18.8663 5.72603 18.5349 6.00242 18.12 6.48284Z" fill="white" stroke="white" stroke-width="0.3"/>
<path d="M14.0626 4.87159C14.7107 5.45317 15.0588 6.10019 15.1544 6.96449C15.1928 7.94027 15.0052 8.6544 14.3849 9.41261C13.4143 10.2067 12.6316 10.4926 11.3673 10.3794C10.4677 10.1286 9.75124 9.61958 9.27259 8.81202C8.88113 7.96577 8.87576 7.00668 9.09315 6.1071C9.41047 5.36226 10.1242 4.71125 10.8537 4.38133C11.9985 3.98909 13.0936 4.15317 14.0626 4.87159ZM10.6202 6.49025C10.3928 6.93646 10.3679 7.18889 10.4298 7.68409C10.6327 8.2286 10.867 8.55581 11.3673 8.85597C12.0188 9.02684 12.4459 9.00961 13.0349 8.67149C13.4086 8.37043 13.5905 8.02747 13.7111 7.56691C13.7582 7.04267 13.6498 6.65197 13.3302 6.2339C12.8897 5.81344 12.6185 5.71335 12.0192 5.64796C11.3644 5.71688 11.0375 5.99618 10.6202 6.49025Z" fill="white" stroke="white" stroke-width="0.3"/>
<path d="M36.4641 6.58473C36.5893 6.58374 36.7145 6.58275 36.8435 6.58173C36.9809 6.58244 37.1182 6.58315 37.2597 6.58389C37.4044 6.58327 37.549 6.58265 37.698 6.58202C38.0949 6.58074 38.4917 6.58104 38.8885 6.58215C39.3036 6.58304 39.7187 6.58222 40.1338 6.58167C40.8309 6.58103 41.5279 6.58187 42.225 6.58354C43.0312 6.58546 43.8374 6.58484 44.6436 6.5829C45.3355 6.58131 46.0274 6.58108 46.7193 6.582C47.1326 6.58255 47.546 6.58262 47.9593 6.58146C48.4201 6.58026 48.8808 6.58192 49.3415 6.58389C49.4788 6.58318 49.6162 6.58246 49.7577 6.58173C49.9455 6.58322 49.9455 6.58322 50.1371 6.58473C50.3005 6.58493 50.3005 6.58493 50.4673 6.58514C50.742 6.62938 50.742 6.62938 50.957 6.78186C51.0936 6.98094 51.0936 6.98094 51.0716 7.39842C50.9764 7.80125 50.9764 7.80125 50.742 8.03563C50.4817 8.06545 50.4817 8.06545 50.1512 8.06618C50.0261 8.06701 49.9011 8.06784 49.7723 8.06869C49.6345 8.0684 49.4967 8.06811 49.3548 8.06781C49.1378 8.06871 49.1378 8.06871 48.9165 8.06963C48.5192 8.07098 48.1219 8.07127 47.7245 8.07097C47.3931 8.07084 47.0617 8.07142 46.7303 8.07198C45.9485 8.07328 45.1668 8.07333 44.385 8.07262C43.578 8.07191 42.7709 8.07336 41.9639 8.07585C41.2715 8.07791 40.5791 8.07862 39.8867 8.07824C39.4729 8.07802 39.0592 8.07834 38.6454 8.07996C38.1841 8.08171 37.7229 8.08062 37.2616 8.07926C37.124 8.08015 36.9865 8.08105 36.8448 8.08197C36.7194 8.08115 36.5941 8.08033 36.4649 8.07948C36.3558 8.0795 36.2467 8.07952 36.1342 8.07954C35.8592 8.03563 35.8592 8.03563 35.6483 7.87908C35.4298 7.57617 35.4624 7.34291 35.5076 6.98094C35.7819 6.60095 36.0099 6.58529 36.4641 6.58473Z" fill="white" stroke="white" stroke-width="0.3"/>
<path d="M9.47525 19.4611C9.60487 19.4604 9.73448 19.4598 9.86803 19.4591C10.297 19.4577 10.7258 19.4596 11.1548 19.4617C11.4525 19.4617 11.7502 19.4615 12.048 19.4612C12.6722 19.461 13.2963 19.4625 13.9205 19.4652C14.6418 19.4683 15.3631 19.4685 16.0844 19.4671C16.7787 19.4659 17.473 19.4666 18.1673 19.4682C18.4626 19.4688 18.7579 19.4688 19.0532 19.4683C19.4656 19.468 19.878 19.4699 20.2904 19.4725C20.4129 19.472 20.5354 19.4714 20.6616 19.4709C20.774 19.4721 20.8863 19.4732 21.0021 19.4744C21.1483 19.4748 21.1483 19.4748 21.2975 19.4753C21.6301 19.5312 21.7911 19.6365 22.0312 19.8714C22.0898 20.2816 22.0898 20.2816 22.0312 20.6917C21.7003 21.0151 21.4627 21.0872 21.0066 21.0871C20.8395 21.0884 20.8395 21.0884 20.669 21.0896C20.5476 21.0887 20.4262 21.0878 20.3011 21.0869C20.1084 21.0876 20.1084 21.0876 19.9118 21.0882C19.4867 21.0892 19.0616 21.0876 18.6365 21.0859C18.3414 21.0858 18.0463 21.0859 17.7512 21.086C17.1325 21.086 16.5139 21.0848 15.8952 21.0827C15.1803 21.0802 14.4654 21.0798 13.7504 21.0805C13.0623 21.0812 12.3741 21.0805 11.686 21.0792C11.3933 21.0788 11.1006 21.0786 10.8079 21.0788C10.3992 21.0789 9.99044 21.0774 9.58168 21.0755C9.46028 21.0758 9.33888 21.0761 9.21379 21.0764C9.10241 21.0755 8.99102 21.0747 8.87625 21.0738C8.73133 21.0735 8.73133 21.0735 8.58349 21.0731C8.28535 21.0393 8.10013 20.9771 7.85156 20.8089C7.73438 20.4134 7.73438 20.4134 7.73438 19.9886C8.12892 19.3332 8.79508 19.4548 9.47525 19.4611Z" fill="white" stroke="white" stroke-width="0.3"/>
<path d="M39.1101 19.4752C39.2215 19.4742 39.3329 19.4732 39.4477 19.4722C39.5691 19.4729 39.6905 19.4737 39.8156 19.4744C39.944 19.4738 40.0725 19.4732 40.2049 19.4725C40.63 19.471 41.0551 19.472 41.4802 19.4732C41.7753 19.4729 42.0704 19.4726 42.3655 19.4722C42.9842 19.4716 43.6028 19.4724 44.2215 19.474C44.9364 19.476 45.6513 19.4753 46.3663 19.4734C47.0544 19.4716 47.7426 19.4718 48.4307 19.4728C48.7234 19.4731 49.0161 19.4728 49.3088 19.472C49.7175 19.4711 50.1262 19.4724 50.535 19.4744C50.7171 19.4733 50.7171 19.4733 50.9029 19.4722C51.0143 19.4732 51.1257 19.4742 51.2404 19.4752C51.3371 19.4754 51.4337 19.4755 51.5332 19.4756C51.8649 19.5314 52.0256 19.6374 52.2651 19.8714C52.3237 20.2816 52.3237 20.2816 52.2651 20.6918C51.9348 21.0143 51.6964 21.0875 51.2412 21.0895C51.0744 21.0915 51.0744 21.0915 50.9042 21.0936C50.7224 21.093 50.7224 21.093 50.5369 21.0925C50.4086 21.0935 50.2803 21.0945 50.1481 21.0955C49.7236 21.0983 49.2991 21.0984 48.8745 21.0982C48.5797 21.0991 48.2848 21.1 47.99 21.1009C47.3719 21.1025 46.7537 21.1027 46.1355 21.102C45.4215 21.1012 44.7076 21.1039 43.9936 21.1083C43.306 21.1123 42.6185 21.1131 41.931 21.1126C41.6387 21.1128 41.3465 21.1139 41.0542 21.116C40.6457 21.1186 40.2374 21.1175 39.8289 21.1154C39.7079 21.117 39.5869 21.1185 39.4623 21.1201C38.9039 21.1135 38.6401 21.1075 38.182 20.7651C37.9683 20.4574 37.9683 20.4574 37.9609 20.1498C38.1972 19.6216 38.552 19.476 39.1101 19.4752Z" fill="white" stroke="white" stroke-width="0.3"/>
<path d="M32.1099 43.309C32.3296 43.4335 32.3296 43.4335 32.4615 43.6606C32.494 44.249 32.4184 44.7404 32.263 45.3068C32.2419 45.3851 32.2207 45.4634 32.1989 45.5441C32.1289 45.8023 32.0573 46.0601 31.9858 46.3179C31.9357 46.5016 31.8857 46.6853 31.8358 46.869C31.7036 47.3546 31.5702 47.8398 31.4365 48.3249C31.2788 48.8978 31.1224 49.4711 30.9659 50.0443C30.837 50.5167 30.7078 50.989 30.5779 51.4611C30.3175 52.4098 30.0624 53.3596 29.8174 54.3124C29.7693 54.4984 29.7212 54.6844 29.673 54.8704C29.5827 55.22 29.4939 55.5699 29.406 55.9202C29.3655 56.077 29.3251 56.2338 29.2845 56.3906C29.2501 56.5268 29.2156 56.6631 29.1801 56.8034C29.0644 57.1332 28.9941 57.2886 28.7115 57.4887C28.3013 57.5473 28.3013 57.5473 27.8911 57.4887C27.6238 57.1657 27.5328 56.9926 27.5647 56.5707C27.5974 56.4482 27.6301 56.3257 27.6637 56.1996C27.7003 56.0579 27.7369 55.9162 27.7745 55.7702C27.8175 55.6138 27.8605 55.4574 27.9035 55.301C27.9472 55.1354 27.9908 54.9698 28.0341 54.8041C28.1287 54.4444 28.2249 54.0852 28.3221 53.7263C28.4813 53.1387 28.6367 52.5501 28.7919 51.9614C29.0675 50.9178 29.3479 49.8755 29.63 48.8337C29.7766 48.2921 29.9217 47.7501 30.0665 47.208C30.1796 46.7857 30.2937 46.3636 30.4082 45.9417C30.4623 45.7416 30.516 45.5414 30.5692 45.341C30.6429 45.0645 30.718 44.7884 30.7935 44.5123C30.8149 44.4307 30.8363 44.3491 30.8583 44.265C31.0711 43.4991 31.2851 43.2059 32.1099 43.309Z" fill="white" stroke="white" stroke-width="0.3"/>
<path d="M38.9885 16.2089C39.1019 16.2083 39.2152 16.2076 39.332 16.2069C39.5183 16.2076 39.5183 16.2076 39.7084 16.2083C39.9048 16.2077 39.9048 16.2077 40.1052 16.2071C40.5391 16.2061 40.973 16.2068 41.4069 16.2075C41.7077 16.2074 42.0085 16.2072 42.3093 16.2069C42.9402 16.2065 43.5711 16.207 44.202 16.2081C44.9315 16.2094 45.661 16.209 46.3905 16.2077C47.0921 16.2065 47.7937 16.2066 48.4953 16.2073C48.794 16.2075 49.0926 16.2073 49.3913 16.2067C49.8082 16.2061 50.2251 16.207 50.6421 16.2083C50.7663 16.2079 50.8905 16.2074 51.0184 16.2069C51.1885 16.2079 51.1885 16.2079 51.362 16.2089C51.5099 16.209 51.5099 16.209 51.6608 16.2092C51.9135 16.2387 51.9135 16.2387 52.2651 16.473C52.3076 16.6928 52.3076 16.6928 52.3017 16.9418C52.3012 17.024 52.3008 17.1062 52.3003 17.1908C52.2651 17.4105 52.2651 17.4105 52.0307 17.6449C51.7887 17.6751 51.7887 17.6751 51.4844 17.6763C51.3116 17.6778 51.3116 17.6778 51.1353 17.6793C51.0085 17.6792 50.8817 17.6791 50.7511 17.679C50.5513 17.6802 50.5513 17.6802 50.3474 17.6814C49.9052 17.6836 49.4631 17.684 49.0209 17.6843C48.7147 17.685 48.4085 17.6858 48.1022 17.6867C47.4596 17.6882 46.817 17.6885 46.1744 17.6884C45.4312 17.6882 44.6881 17.6907 43.9449 17.6944C43.2305 17.6978 42.5161 17.6987 41.8016 17.6985C41.4974 17.6988 41.1932 17.6998 40.889 17.7016C40.4641 17.7039 40.0394 17.7033 39.6146 17.7019C39.488 17.7032 39.3614 17.7045 39.231 17.7058C39.0578 17.7044 39.0578 17.7044 38.881 17.7029C38.7805 17.703 38.68 17.7031 38.5765 17.7033C38.3198 17.6449 38.3198 17.6449 38.108 17.4298C37.9682 17.1762 37.9682 17.1762 37.9829 16.81C38.1518 16.255 38.4618 16.2094 38.9885 16.2089Z" fill="white" stroke="white" stroke-width="0.3"/>
<path d="M8.62828 16.2082C8.79957 16.2069 8.79957 16.2069 8.97432 16.2057C9.10003 16.206 9.22575 16.2062 9.35528 16.2065C9.48733 16.2059 9.61939 16.2053 9.75545 16.2047C10.1938 16.2031 10.6322 16.2032 11.0705 16.2035C11.3741 16.203 11.6777 16.2025 11.9813 16.202C12.6184 16.2011 13.2555 16.2011 13.8926 16.2017C14.6294 16.2024 15.3661 16.201 16.1029 16.1985C16.8112 16.1962 17.5195 16.1958 18.2278 16.1962C18.5294 16.1962 18.831 16.1956 19.1326 16.1944C19.5538 16.193 19.9749 16.1937 20.3961 16.1951C20.5216 16.1942 20.647 16.1933 20.7763 16.1924C20.9481 16.1936 20.9481 16.1936 21.1234 16.1949C21.2728 16.1948 21.2728 16.1948 21.4252 16.1948C21.74 16.249 21.8438 16.3353 22.0317 16.5903C22.1069 17.1915 22.1069 17.1915 21.8879 17.4883C21.618 17.6918 21.4604 17.6894 21.1242 17.6904C20.9526 17.6922 20.9526 17.6922 20.7776 17.6939C20.5897 17.6931 20.5897 17.6931 20.3979 17.6923C20.1998 17.6935 20.1998 17.6935 19.9977 17.6948C19.56 17.6969 19.1223 17.6965 18.6845 17.6958C18.3811 17.6963 18.0777 17.6969 17.7742 17.6977C17.1378 17.6987 16.5015 17.6984 15.865 17.6972C15.1291 17.6959 14.3933 17.6976 13.6574 17.7007C12.9496 17.7036 12.2419 17.7039 11.5342 17.7031C11.2329 17.7031 10.9316 17.7038 10.6303 17.7053C10.2097 17.707 9.78919 17.7058 9.36858 17.7038C9.24329 17.7049 9.11799 17.706 8.9889 17.7072C8.87454 17.7061 8.76019 17.7049 8.64237 17.7037C8.5429 17.7037 8.44344 17.7037 8.34096 17.7036C8.08639 17.645 8.08639 17.645 7.87448 17.4298C7.67752 17.0722 7.74328 16.8578 7.85201 16.4731C8.14283 16.1823 8.22752 16.2091 8.62828 16.2082Z" fill="white" stroke="white" stroke-width="0.3"/>
<path d="M9.01549 22.875C9.11003 22.8745 9.20457 22.8741 9.30198 22.8737C9.61475 22.8727 9.92744 22.8743 10.2402 22.876C10.4572 22.8761 10.6742 22.876 10.8912 22.8758C11.3461 22.8759 11.8009 22.8771 12.2557 22.8792C12.8396 22.8819 13.4235 22.8819 14.0074 22.8811C14.4555 22.8807 14.9035 22.8815 15.3516 22.8827C15.5669 22.8831 15.7823 22.8833 15.9976 22.8831C16.2981 22.883 16.5986 22.8845 16.8991 22.8864C17.0334 22.886 17.0334 22.886 17.1705 22.8855C17.7862 22.8918 17.7862 22.8918 18.0474 23.153C18.1123 23.8671 18.1123 23.8671 17.9258 24.1722C17.5705 24.408 17.2044 24.3747 16.792 24.3722C16.7001 24.373 16.6082 24.3738 16.5135 24.3746C16.2095 24.3768 15.9056 24.3763 15.6015 24.3757C15.3903 24.3762 15.1791 24.3768 14.968 24.3775C14.5251 24.3786 14.0823 24.3783 13.6395 24.3771C13.0719 24.3758 12.5044 24.3781 11.9368 24.3816C11.5006 24.3837 11.0644 24.3837 10.6282 24.383C10.4189 24.383 10.2096 24.3837 10.0003 24.3852C9.70771 24.3869 9.41523 24.3857 9.1226 24.3836C8.99282 24.3853 8.99282 24.3853 8.86042 24.3871C8.45666 24.3813 8.24064 24.353 7.91501 24.1056C7.73486 23.8561 7.73486 23.8561 7.68359 23.5558C7.8169 22.8131 8.37354 22.8685 9.01549 22.875Z" fill="white" stroke="white" stroke-width="0.3"/>
<path d="M42.9494 22.8866C43.0392 22.8871 43.1289 22.8875 43.2214 22.888C43.3159 22.8876 43.4104 22.8872 43.5078 22.8868C43.8212 22.8858 44.1346 22.8864 44.448 22.8872C44.6651 22.8871 44.8823 22.8868 45.0995 22.8866C45.555 22.8862 46.0105 22.8867 46.4661 22.8878C47.0509 22.8891 47.6357 22.8884 48.2205 22.887C48.6691 22.8861 49.1177 22.8864 49.5662 22.887C49.7819 22.8872 49.9976 22.887 50.2133 22.8864C50.5143 22.8858 50.8154 22.8867 51.1164 22.888C51.2062 22.8876 51.2959 22.8871 51.3884 22.8866C52.0054 22.8916 52.0054 22.8916 52.2666 23.1527C52.3315 23.8668 52.3315 23.8668 52.145 24.172C51.7897 24.4078 51.4236 24.3745 51.0112 24.372C50.9193 24.3728 50.8274 24.3736 50.7328 24.3744C50.4287 24.3765 50.1248 24.3761 49.8207 24.3754C49.6095 24.376 49.3984 24.3766 49.1872 24.3773C48.7443 24.3783 48.3015 24.378 47.8587 24.3769C47.2911 24.3755 46.7236 24.3779 46.156 24.3813C45.7198 24.3835 45.2836 24.3834 44.8474 24.3828C44.6381 24.3828 44.4288 24.3835 44.2195 24.3849C43.9269 24.3867 43.6344 24.3854 43.3418 24.3834C43.212 24.3851 43.212 24.3851 43.0796 24.3868C42.6776 24.381 42.4578 24.3504 42.1301 24.1094C41.9541 23.8559 41.9541 23.8559 41.9687 23.4896C42.1478 22.9012 42.3716 22.8913 42.9494 22.8866Z" fill="white" stroke="white" stroke-width="0.3"/>
<path d="M30 30.1401C30.3516 30.1841 30.3516 30.1841 30.7031 30.4185C30.8312 30.8026 30.836 31.0866 30.8374 31.491C30.8381 31.6396 30.8389 31.7882 30.8396 31.9413C30.8398 32.1037 30.8399 32.2661 30.84 32.4285C30.8404 32.595 30.8408 32.7616 30.8412 32.9281C30.8419 33.2771 30.8421 33.6261 30.842 33.9751C30.842 34.4221 30.8436 34.8691 30.8457 35.3161C30.847 35.66 30.8472 36.0039 30.8471 36.3479C30.8473 36.5127 30.8478 36.6774 30.8487 36.8422C30.8498 37.0728 30.8494 37.3034 30.8488 37.5339C30.849 37.665 30.8491 37.7962 30.8493 37.9313C30.8206 38.267 30.7712 38.46 30.586 38.7388C30.2545 38.9045 30.0148 38.8933 29.6485 38.856C29.3728 38.5887 29.3015 38.4232 29.2523 38.0404C29.252 37.9054 29.2517 37.7705 29.2514 37.6314C29.2503 37.4781 29.2492 37.3248 29.248 37.1669C29.2487 36.9999 29.2494 36.833 29.2502 36.666C29.25 36.4944 29.2496 36.3228 29.2492 36.1512C29.2487 35.7918 29.2494 35.4325 29.2511 35.0731C29.2531 34.6128 29.2519 34.1526 29.2498 33.6924C29.2485 33.3381 29.2489 32.9838 29.2499 32.6295C29.2501 32.4598 29.2498 32.2901 29.249 32.1204C29.2481 31.8832 29.2497 31.6459 29.2514 31.4086C29.2517 31.2737 29.252 31.1387 29.2523 30.9997C29.3204 30.4702 29.4565 30.2081 30 30.1401Z" fill="white" stroke="white" stroke-width="0.3"/>
</g>
<defs>
<clipPath id="clip0_695_1059">
<rect width="60" height="60" fill="white" transform="translate(0 0.77002)"/>
</clipPath>
</defs>
</svg>
