<svg width="60" height="61" viewBox="0 0 60 61" fill="none" xmlns="http://www.w3.org/2000/svg">
<g clip-path="url(#clip0_695_1085)">
<path d="M55.0698 4.27084C55.2304 4.39044 55.3892 4.5124 55.5459 4.63705C55.6177 4.68856 55.6894 4.74007 55.7634 4.79314C56.8417 5.61913 57.5669 7.05549 57.7725 8.38705C57.7863 8.66512 57.793 8.9436 57.7945 9.22201C57.7953 9.29954 57.7961 9.37707 57.797 9.45696C57.7955 9.94381 57.726 10.3538 57.5894 10.8187C57.5024 11.2324 57.5005 11.3725 57.7244 11.7379C57.9089 11.9524 58.0975 12.1634 58.2893 12.3714C58.6183 12.7525 58.8599 13.1316 59.0982 13.5726C59.1702 13.7037 59.2423 13.8348 59.3165 13.9699C60.0975 15.7235 60.0675 17.4497 60.0603 19.3395C60.0593 19.7589 60.0609 20.1783 60.0622 20.5977C60.0643 21.417 60.0638 22.2363 60.0625 23.0556C60.0614 23.7221 60.0613 24.3885 60.0618 25.055C60.0618 25.1502 60.0619 25.2453 60.062 25.3434C60.0621 25.5369 60.0623 25.7303 60.0624 25.9238C60.0638 27.7337 60.0622 29.5436 60.0597 31.3536C60.0576 32.9033 60.058 34.4531 60.0602 36.0028C60.0627 37.8067 60.0636 39.6106 60.0622 41.4145C60.0621 41.6072 60.0619 41.7999 60.0618 41.9926C60.0617 42.0874 60.0616 42.1822 60.0615 42.2798C60.0611 42.9447 60.0618 43.6096 60.0629 44.2745C60.0643 45.0859 60.0639 45.8972 60.0614 46.7086C60.0602 47.1218 60.0597 47.5349 60.0612 47.9481C60.0697 50.8912 59.708 53.2386 57.6553 55.4964C56.9586 56.1961 56.2122 56.7274 55.3408 57.181C55.2726 57.2173 55.2044 57.2536 55.1341 57.291C53.6978 57.9894 52.1512 58.1442 50.5778 58.1341C50.3919 58.1346 50.206 58.1354 50.0201 58.1363C49.5149 58.1382 49.0097 58.1373 48.5045 58.1358C47.9574 58.1348 47.4104 58.1364 46.8633 58.1377C45.7939 58.1398 44.7245 58.1393 43.655 58.138C42.7853 58.1369 41.9157 58.1368 41.046 58.1373C40.9219 58.1373 40.7978 58.1374 40.6699 58.1375C40.4178 58.1376 40.1656 58.1378 39.9135 58.138C37.5528 58.1393 35.1921 58.1378 32.8314 58.1352C30.8088 58.1331 28.7862 58.1335 26.7636 58.1357C24.4109 58.1382 22.0583 58.1392 19.7057 58.1377C19.4545 58.1376 19.2033 58.1374 18.9521 58.1373C18.8285 58.1372 18.705 58.1371 18.5777 58.1371C17.7097 58.1367 16.8418 58.1373 15.9738 58.1384C14.9151 58.1398 13.8564 58.1394 12.7976 58.1369C12.2581 58.1357 11.7187 58.1352 11.1792 58.1367C10.6842 58.1381 10.1892 58.1373 9.69417 58.1349C9.51629 58.1344 9.3384 58.1346 9.16052 58.1357C7.60062 58.145 6.04301 57.919 4.64992 57.1737C4.57287 57.1335 4.49582 57.0934 4.41643 57.052C2.3697 55.9473 0.925322 54.0665 0.223845 51.865C-0.15326 50.5157 -0.0674897 49.0961 -0.0622359 47.708C-0.061165 47.2886 -0.0628186 46.8692 -0.0641027 46.4498C-0.0661766 45.6305 -0.0657416 44.8112 -0.0643781 43.9919C-0.0633153 43.3255 -0.0631758 42.659 -0.0636843 41.9926C-0.0637561 41.8974 -0.0638284 41.8022 -0.0639024 41.7041C-0.0640523 41.5106 -0.0642061 41.3172 -0.0643602 41.1237C-0.0656938 39.3138 -0.0641658 37.5039 -0.0616422 35.694C-0.0595482 34.1442 -0.0599106 32.5945 -0.0620714 31.0447C-0.0645853 29.2408 -0.0655641 27.4369 -0.0641277 25.6331C-0.0639784 25.4404 -0.0638297 25.2477 -0.0636843 25.055C-0.0636119 24.9602 -0.0635406 24.8654 -0.0634661 24.7677C-0.063063 24.1028 -0.06374 23.4379 -0.0648466 22.773C-0.0661673 21.9617 -0.0657929 21.1503 -0.0633088 20.339C-0.0620849 19.9258 -0.0615839 19.5126 -0.0631478 19.0994C-0.071715 16.1155 0.307311 13.6657 2.45998 11.4339C4.40329 9.62507 6.62434 8.94757 9.22479 8.96469C9.45627 8.96546 9.68775 8.96622 9.91923 8.96698C10.1695 8.96791 10.4198 8.96914 10.6701 8.97045C11.2067 8.97325 11.7432 8.9752 12.2798 8.977C12.4678 8.97764 12.6557 8.97828 12.8437 8.97892C12.9384 8.97924 13.0332 8.97956 13.1308 8.9799C13.4252 8.98093 13.7196 8.98204 14.014 8.98318C15.4471 8.98864 16.8801 8.99159 18.3132 8.99303C18.417 8.99314 18.5207 8.99325 18.6276 8.99336C19.5905 8.99435 20.5534 8.99518 21.5164 8.99592C22.1762 8.99644 22.836 8.99706 23.4959 8.99776C23.6603 8.99793 23.6603 8.99793 23.828 8.99811C25.6037 9.00013 27.3794 9.00719 29.1552 9.016C30.9796 9.02492 32.804 9.02804 34.6285 9.0259C35.7531 9.02476 36.8776 9.02819 38.0022 9.03749C38.7732 9.04345 39.5442 9.04379 40.3152 9.03976C40.7598 9.03761 41.2041 9.03789 41.6486 9.04489C43.4929 9.16921 43.4929 9.16921 45.1312 8.5279C45.4769 8.16578 45.7 7.77162 45.9365 7.33236C46.1128 7.10666 46.2928 6.88384 46.4785 6.66586C46.5636 6.56208 46.6486 6.4583 46.7363 6.35137C48.81 3.84572 51.9917 2.29503 55.0698 4.27084ZM47.768 8.04218C47.5896 8.25497 47.41 8.46658 47.2297 8.67773C46.6459 9.36234 46.0724 10.0549 45.5044 10.7528C45.1486 11.1855 44.7859 11.6122 44.4232 12.0391C43.9966 12.5419 43.5788 13.0513 43.163 13.563C42.962 13.807 42.7595 14.0487 42.5541 14.289C42.4967 14.3562 42.4393 14.4234 42.3802 14.4927C42.2693 14.6222 42.1581 14.7515 42.0465 14.8804C41.7031 15.2815 41.4284 15.6766 41.1319 16.1214C42.4467 17.4363 43.7615 18.7511 45.1162 20.1058C45.7381 19.6394 46.3305 19.1752 46.9107 18.6629C47.5245 18.1259 48.1454 17.6008 48.7793 17.0873C49.144 16.7891 49.5034 16.4852 49.8623 16.18C50.3274 15.7848 50.7952 15.3935 51.2686 15.0081C51.8016 14.574 52.3291 14.134 52.8516 13.6873C53.1793 13.4074 53.5094 13.1322 53.8472 12.8644C54.8501 12.0614 55.6666 11.2268 55.8975 9.91048C56.0162 8.72932 55.75 7.73867 55.0625 6.76839C54.3595 5.92658 53.3852 5.41018 52.2944 5.31088C50.1664 5.22413 49.0316 6.53328 47.768 8.04218ZM3.63185 13.0745C3.56569 13.138 3.49952 13.2014 3.43135 13.2668C1.69995 15.0807 1.73696 17.5576 1.74953 19.8934C1.75012 20.0851 1.75065 20.2768 1.75113 20.4686C1.75241 20.9336 1.75442 21.3986 1.75685 21.8636C5.31581 21.9091 8.87474 21.9443 12.4339 21.9653C12.8546 21.9678 13.2752 21.9704 13.6959 21.973C13.8215 21.9738 13.8215 21.9738 13.9497 21.9746C15.3037 21.9833 16.6577 21.999 18.0116 22.0173C19.4021 22.036 20.7924 22.047 22.183 22.0511C22.9636 22.0535 23.744 22.0597 24.5245 22.0742C25.2599 22.0878 25.9948 22.0919 26.7303 22.0889C26.9995 22.0895 27.2689 22.0934 27.538 22.1011C28.9058 22.1801 28.9058 22.1801 30.1237 21.6705C30.5525 21.2022 30.8567 20.6815 31.1485 20.1208C32.5814 17.561 35.385 16.4437 38.0343 15.6139C38.3155 15.5366 38.5928 15.4872 38.8801 15.4389C39.4204 15.3237 39.697 15.0404 40.0186 14.6053C40.0726 14.537 40.1266 14.4687 40.1822 14.3984C40.2923 14.259 40.4013 14.1188 40.5093 13.9778C40.7298 13.6908 40.9602 13.4123 41.1904 13.1331C41.3153 12.9795 41.3153 12.9795 41.4427 12.8228C41.8232 12.3606 42.2117 11.9053 42.6022 11.4515C42.8821 11.1839 42.8821 11.1839 43.0069 10.848C38.5581 10.8372 34.1093 10.829 29.6605 10.824C29.1347 10.8235 28.6089 10.8229 28.083 10.8222C27.9784 10.8221 27.8737 10.822 27.7658 10.8219C26.0733 10.8198 24.3809 10.8161 22.6884 10.8118C20.9503 10.8074 19.2123 10.8048 17.4742 10.8039C16.4026 10.8032 15.3311 10.8012 14.2596 10.7974C13.5237 10.7949 12.7878 10.7942 12.052 10.7948C11.6281 10.7951 11.2042 10.7946 10.7804 10.7921C7.92616 10.7759 5.74621 10.9677 3.63185 13.0745ZM56.249 13.1917C56.1709 13.2641 56.0928 13.3365 56.0124 13.411C55.3576 14.0126 54.6936 14.5925 53.9991 15.1487C53.8367 15.2821 53.8367 15.2821 53.6709 15.4183C53.5934 15.471 53.5159 15.5237 53.4361 15.578C53.063 15.8543 52.7788 16.0695 52.6554 16.5292C52.6363 16.8735 52.6461 17.2051 52.6675 17.5492C52.6714 17.6729 52.6754 17.7966 52.6794 17.924C52.6929 18.3171 52.7131 18.7096 52.7334 19.1024C52.7438 19.3696 52.7537 19.6369 52.7632 19.9042C52.7865 20.5578 52.8187 21.2101 52.8506 21.8636C54.6295 21.8636 56.4084 21.8636 58.2412 21.8636C58.2461 21.2231 58.2509 20.5826 58.2559 19.9227C58.258 19.7246 58.2601 19.5264 58.2623 19.3223C58.2759 17.179 58.1088 14.9815 56.6006 13.3089C56.4846 13.2703 56.3686 13.2316 56.249 13.1917ZM33.8873 19.7208C33.803 19.8092 33.7187 19.8976 33.6319 19.9886C33.5476 20.0734 33.4633 20.1581 33.3764 20.2454C32.7465 20.9078 32.2266 21.6348 31.7108 22.3866C31.3676 22.8846 31.0089 23.3556 30.6188 23.8176C29.9212 24.6461 29.9212 24.6461 29.7171 25.6864C29.8542 26.4897 30.0844 27.0714 30.7382 27.5852C31.0641 27.8116 31.4112 27.9848 31.7715 28.1478C31.8486 28.1829 31.9258 28.2179 32.0052 28.254C34.1177 29.1862 36.3964 29.2256 38.5652 28.4476C40.8909 27.4992 42.572 25.6762 43.5748 23.3959C44.004 22.4754 44.004 22.4754 43.9444 21.512C43.7683 21.2821 43.7683 21.2821 43.5405 21.0608C43.4552 20.974 43.3699 20.8873 43.282 20.7979C43.1429 20.6592 43.1429 20.6592 43.0009 20.5178C42.9059 20.4222 42.811 20.3266 42.7131 20.2282C42.5121 20.0264 42.3106 19.8251 42.1088 19.6242C41.7994 19.3158 41.4922 19.0053 41.1852 18.6945C40.9898 18.4989 40.7942 18.3034 40.5986 18.1081C40.5065 18.0147 40.4144 17.9214 40.3196 17.8252C40.19 17.6972 40.19 17.6972 40.0578 17.5667C39.9444 17.4533 39.9443 17.4533 39.8286 17.3376C38.4856 16.3528 34.8515 18.7745 33.8873 19.7208ZM50.1846 18.326C50.0451 18.4449 49.9057 18.5637 49.7662 18.6826C49.6946 18.7438 49.6229 18.8051 49.5491 18.8682C49.2196 19.1497 48.8892 19.4301 48.5586 19.7103C48.496 19.7634 48.4335 19.8164 48.369 19.8711C47.8509 20.3095 47.3255 20.7382 46.7967 21.1637C46.5366 21.383 46.2943 21.623 46.0537 21.8636C47.678 21.8636 49.3022 21.8636 50.9756 21.8636C50.9756 20.5101 50.9756 19.1566 50.9756 17.762C50.7006 17.762 50.3935 18.1466 50.1846 18.326ZM1.75685 23.7386C1.75202 27.9393 1.74718 32.1401 1.7422 36.4681C1.74007 37.793 1.73794 39.1179 1.73574 40.483C1.73495 41.6738 1.73495 41.6738 1.73448 42.8645C1.73427 43.3937 1.73339 43.9228 1.73211 44.4519C1.73049 45.1282 1.73002 45.8045 1.73035 46.4808C1.73028 46.7282 1.72982 46.9755 1.72891 47.2229C1.72054 49.609 1.86759 51.6093 3.28029 53.6214C3.36488 53.7423 3.44948 53.8631 3.53664 53.9876C4.67345 55.2693 6.36477 56.1118 8.07426 56.2214C8.47326 56.23 8.87167 56.2313 9.27077 56.2301C9.49974 56.2308 9.49974 56.2308 9.73333 56.2315C10.1547 56.2327 10.576 56.2324 10.9974 56.2319C11.4527 56.2316 11.9081 56.2327 12.3634 56.2336C13.2546 56.235 14.1457 56.2353 15.0369 56.235C15.7614 56.2348 16.486 56.235 17.2106 56.2355C17.3138 56.2355 17.417 56.2356 17.5234 56.2357C17.7331 56.2358 17.9429 56.236 18.1526 56.2361C20.1183 56.2374 22.0841 56.2371 24.0498 56.2364C25.8467 56.2358 27.6436 56.2371 29.4406 56.2394C31.2873 56.2416 33.1339 56.2426 34.9806 56.2422C36.0168 56.2419 37.0529 56.2422 38.089 56.2439C38.9711 56.2453 39.8531 56.2454 40.7352 56.244C41.1849 56.2433 41.6346 56.2432 42.0843 56.2446C42.5726 56.2461 43.0608 56.2449 43.5491 56.2434C43.6901 56.2443 43.8311 56.2451 43.9763 56.246C45.8637 56.234 47.6008 55.5672 48.9628 54.2431C50.3227 52.8026 51.0172 51.1818 51.0038 49.2034C51.004 49.0939 51.0042 48.9844 51.0044 48.8715C51.0048 48.5072 51.0035 48.1429 51.0022 47.7785C51.0021 47.5163 51.0022 47.254 51.0023 46.9918C51.0024 46.2817 51.001 45.5717 50.9994 44.8616C50.9979 44.1189 50.9978 43.3761 50.9975 42.6334C50.9968 41.3873 50.9954 40.1413 50.9933 38.8952C50.9911 37.6122 50.9895 36.3291 50.9885 35.0461C50.9884 34.9669 50.9884 34.8877 50.9883 34.8061C50.988 34.4089 50.9877 34.0116 50.9874 33.6144C50.985 30.3224 50.9807 27.0305 50.9756 23.7386C49.1194 23.7386 47.2631 23.7386 45.3506 23.7386C45.0412 24.396 44.7319 25.0535 44.4131 25.7308C44.109 26.1894 43.8225 26.6003 43.4756 27.0199C43.3951 27.1194 43.3146 27.219 43.2316 27.3215C41.5219 29.3331 39.0836 30.4938 36.4709 30.7396C33.9906 30.9187 31.2608 30.3458 29.2739 28.7777C28.5076 28.0294 28.1486 27.137 28.0069 26.0824C28.0001 25.2446 28.1272 24.5477 28.3584 23.7386C19.5799 23.7386 10.8014 23.7386 1.75685 23.7386ZM52.8506 23.7386C52.8495 24.5376 52.8484 25.3365 52.8473 26.1597C52.8434 28.7226 52.8373 31.2854 52.8298 33.8483C52.8286 34.2471 52.8274 34.6459 52.8263 35.0447C52.8261 35.124 52.8258 35.2034 52.8256 35.2852C52.822 36.5668 52.82 37.8484 52.8186 39.13C52.8171 40.4473 52.8139 41.7645 52.8091 43.0817C52.8064 43.8206 52.8046 44.5596 52.8047 45.2985C52.8048 45.9954 52.8027 46.6922 52.7989 47.3891C52.7979 47.6436 52.7977 47.898 52.7984 48.1525C52.8048 50.9982 52.316 53.3912 50.2652 55.512C50.1227 55.6539 49.9789 55.7943 49.833 55.9327C49.6729 56.0614 49.6729 56.0614 49.6865 56.1996C52.0735 56.2846 53.9781 56.0844 55.9195 54.5443C57.4476 53.118 58.1576 51.1903 58.2539 49.1309C58.275 48.3742 58.2706 47.6175 58.2678 46.8605C58.2678 46.6075 58.2678 46.3544 58.2679 46.1013C58.268 45.4188 58.2666 44.7364 58.265 44.054C58.2635 43.3391 58.2634 42.6242 58.2631 41.9093C58.2624 40.5576 58.2605 39.2059 58.2581 37.8542C58.2555 36.3144 58.2542 34.7747 58.253 33.235C58.2506 30.0695 58.2463 26.9041 58.2412 23.7386C56.4623 23.7386 54.6834 23.7386 52.8506 23.7386Z" fill="white"/>
<path d="M12.9282 33.0713C13.1336 33.0714 13.339 33.0713 13.5444 33.0711C13.9724 33.0711 14.4004 33.0723 14.8285 33.0745C15.3743 33.0771 15.9201 33.0772 16.4659 33.0764C16.8892 33.076 17.3124 33.0768 17.7357 33.0779C17.9369 33.0784 18.138 33.0785 18.3392 33.0783C20.0342 33.0781 21.5277 33.109 22.8297 34.3224C23.6926 35.2452 23.9426 36.3895 23.9385 37.6209C23.9391 37.7152 23.9397 37.8095 23.9403 37.9066C23.9419 38.2155 23.9419 38.5243 23.9416 38.8332C23.942 39.0497 23.9425 39.2663 23.9431 39.4828C23.944 39.9357 23.9439 40.3886 23.9433 40.8415C23.9426 41.4194 23.9446 41.9973 23.9473 42.5752C23.9491 43.0222 23.9492 43.4691 23.9488 43.9161C23.9489 44.1291 23.9495 44.342 23.9507 44.555C23.9589 46.2443 23.852 47.599 22.6649 48.9053C21.4596 50.0395 20.002 49.9413 18.4535 49.9339C18.2188 49.9342 17.9842 49.9347 17.7496 49.9353C17.2595 49.936 16.7694 49.935 16.2792 49.9328C15.6535 49.9301 15.0279 49.9317 14.4022 49.9345C13.9182 49.9362 13.4342 49.9356 12.9502 49.9344C12.7196 49.9341 12.489 49.9345 12.2584 49.9356C10.6994 49.9414 9.46757 49.9107 8.28286 48.7831C7.03204 47.509 7.07816 46.1285 7.08626 44.4444C7.08595 44.2124 7.08549 43.9805 7.0849 43.7485C7.08422 43.2639 7.08521 42.7793 7.08741 42.2947C7.09008 41.676 7.08854 41.0575 7.08573 40.4389C7.08403 39.9603 7.08458 39.4818 7.08579 39.0032C7.0861 38.7752 7.08573 38.5472 7.08463 38.3192C7.07863 36.7224 7.15437 35.3815 8.32039 34.1685C9.6351 33.0159 11.2805 33.0615 12.9282 33.0713ZM9.63143 35.6114C9.11131 36.2504 8.97149 36.7895 8.97803 37.6018C8.97741 37.6968 8.9768 37.7917 8.97616 37.8896C8.97462 38.202 8.97564 38.5143 8.97683 38.8268C8.97659 39.0448 8.97625 39.2628 8.97581 39.4808C8.97529 39.9371 8.97604 40.3933 8.97769 40.8496C8.97969 41.4336 8.97854 42.0175 8.97643 42.6015C8.97516 43.0515 8.97556 43.5015 8.97647 43.9515C8.97671 44.1668 8.97642 44.3821 8.9756 44.5974C8.97471 44.8986 8.97608 45.1997 8.97803 45.5009C8.97732 45.5894 8.97661 45.6778 8.97587 45.7689C8.98374 46.4254 9.12776 46.9082 9.5765 47.3947C9.67982 47.4788 9.67982 47.4788 9.78524 47.5645C9.85412 47.6221 9.92301 47.6797 9.99398 47.739C10.4555 48.061 10.9499 48.0155 11.4882 48.0174C11.6321 48.0186 11.6321 48.0186 11.7788 48.0198C12.0963 48.0221 12.4139 48.0234 12.7314 48.0246C12.8942 48.0253 12.8942 48.0253 13.0603 48.026C13.635 48.0285 14.2096 48.0302 14.7842 48.0313C15.377 48.0326 15.9697 48.0366 16.5625 48.0412C17.0189 48.0443 17.4753 48.0453 17.9318 48.0457C18.1503 48.0463 18.3687 48.0476 18.5872 48.0498C18.8935 48.0527 19.1997 48.0526 19.506 48.0517C19.5956 48.0533 19.6852 48.0548 19.7776 48.0563C20.4225 48.0501 20.7942 47.8918 21.3282 47.5279C21.9628 46.8762 22.0665 46.1843 22.0654 45.3026C22.0662 45.2114 22.067 45.1202 22.0678 45.0263C22.07 44.7264 22.0704 44.4266 22.0707 44.1267C22.0715 43.9172 22.0722 43.7076 22.0731 43.498C22.0745 43.0593 22.0749 42.6206 22.0748 42.1818C22.0747 41.6212 22.0779 41.0607 22.082 40.5001C22.0846 40.0674 22.0851 39.6347 22.0849 39.202C22.0852 38.9954 22.0862 38.7888 22.0881 38.5822C22.0904 38.2925 22.0897 38.003 22.0883 37.7133C22.0896 37.629 22.0909 37.5447 22.0923 37.4579C22.0837 36.7606 21.8725 36.1545 21.4013 35.6294C20.7545 35.0505 20.08 34.9537 19.2415 34.9567C19.1527 34.9561 19.0638 34.9555 18.9722 34.9549C18.6799 34.9532 18.3877 34.9533 18.0955 34.9536C17.8912 34.9532 17.6869 34.9526 17.4825 34.9521C17.0548 34.9512 16.6271 34.9513 16.1994 34.9519C15.653 34.9525 15.1067 34.9506 14.5603 34.9478C14.1384 34.9461 13.7166 34.946 13.2947 34.9464C13.0934 34.9463 12.892 34.9457 12.6907 34.9445C12.4083 34.9431 12.126 34.9439 11.8436 34.9452C11.7615 34.9443 11.6794 34.9434 11.5949 34.9425C10.8377 34.9505 10.215 35.1316 9.63143 35.6114Z" fill="white"/>
<path d="M31.0314 33.5657C31.2207 33.5651 31.2207 33.5651 31.4139 33.5645C31.8306 33.5634 32.2472 33.5632 32.6639 33.563C32.9543 33.5626 33.2448 33.5623 33.5352 33.5618C34.144 33.5611 34.7528 33.5609 35.3616 33.561C36.1399 33.561 36.9183 33.5594 37.6966 33.5574C38.2966 33.5561 38.8966 33.5558 39.4966 33.5559C39.7835 33.5558 40.0703 33.5553 40.3572 33.5543C40.7593 33.5532 41.1615 33.5535 41.5636 33.5542C41.681 33.5536 41.7984 33.5529 41.9194 33.5522C43.2135 33.558 44.2648 33.7249 45.2341 34.6374C45.9768 35.6182 46.1581 36.4671 46.0544 37.6843C45.8547 38.5721 45.3872 39.2622 44.6481 39.7936C43.8278 40.268 43.1014 40.3299 42.1673 40.3231C42.0282 40.3239 41.8892 40.3247 41.7459 40.3255C41.3675 40.3272 40.9891 40.3269 40.6106 40.3254C40.2128 40.3242 39.8149 40.3253 39.417 40.326C38.7492 40.3269 38.0813 40.3257 37.4135 40.3235C36.6436 40.321 35.8738 40.3218 35.1039 40.3244C34.4405 40.3265 33.777 40.3268 33.1136 40.3256C32.7184 40.3248 32.3232 40.3247 31.9281 40.3263C31.4872 40.3275 31.0464 40.3257 30.6055 40.3231C30.4762 40.324 30.3469 40.3249 30.2136 40.3259C29.2328 40.3152 28.5538 40.0824 27.7438 39.5373C26.8941 38.6683 26.6749 37.7682 26.6859 36.5806C26.7505 35.7468 27.1141 35.0822 27.6752 34.4699C28.6706 33.6184 29.783 33.5651 31.0314 33.5657ZM28.7765 36.1242C28.5548 36.5943 28.4918 36.9397 28.5934 37.4499C28.8396 37.9246 29.035 38.1918 29.5309 38.3874C29.8052 38.4236 29.8052 38.4236 30.1023 38.4203C30.2171 38.4217 30.332 38.423 30.4503 38.4244C30.5755 38.4246 30.7007 38.4249 30.8298 38.4252C30.9622 38.4263 31.0947 38.4275 31.2312 38.4287C31.6699 38.4321 32.1085 38.4337 32.5471 38.435C32.8519 38.4364 33.1567 38.4377 33.4614 38.4391C34.019 38.4412 34.5765 38.4427 35.1341 38.4434C35.9535 38.4444 36.7728 38.4485 37.5922 38.4553C38.3031 38.461 39.0138 38.4628 39.7246 38.4632C40.0265 38.4639 40.3284 38.4658 40.6303 38.4689C41.0528 38.4729 41.475 38.4725 41.8976 38.4709C42.0221 38.4731 42.1466 38.4753 42.2749 38.4775C42.995 38.4694 43.3974 38.372 43.9185 37.862C44.2259 37.4819 44.2232 37.1 44.1794 36.6296C44.0324 36.1886 43.9144 35.9908 43.5422 35.7141C43.0976 35.508 42.7213 35.4431 42.2329 35.4413C42.071 35.4402 42.071 35.4402 41.9059 35.4392C41.7295 35.439 41.7295 35.439 41.5496 35.4388C41.4251 35.4382 41.3006 35.4377 41.1724 35.4371C40.7604 35.4354 40.3484 35.4346 39.9364 35.4339C39.65 35.4332 39.3636 35.4326 39.0772 35.4319C38.4766 35.4306 37.876 35.43 37.2754 35.4296C36.5062 35.4289 35.737 35.4261 34.9678 35.4228C34.3761 35.4206 33.7845 35.42 33.1929 35.4198C32.9093 35.4194 32.6257 35.4185 32.3422 35.417C31.9453 35.415 31.5484 35.4152 31.1515 35.4159C31.0347 35.4149 30.9178 35.4138 30.7974 35.4127C29.9779 35.4176 29.3536 35.488 28.7765 36.1242Z" fill="white"/>
<path d="M30.0953 42.7068C30.2086 42.7061 30.322 42.7055 30.4387 42.7048C30.5623 42.7046 30.6859 42.7045 30.8132 42.7044C31.0094 42.7035 31.0094 42.7035 31.2095 42.7026C31.6427 42.7009 32.0758 42.7001 32.509 42.6995C32.8103 42.6988 33.1116 42.6981 33.4129 42.6974C33.9643 42.6964 34.5158 42.6956 35.0672 42.6953C35.8765 42.6947 36.6858 42.6927 37.4951 42.6893C38.1979 42.6864 38.9007 42.6855 39.6035 42.6853C39.9015 42.685 40.1994 42.6841 40.4974 42.6825C40.9153 42.6805 41.3331 42.6807 41.751 42.6815C41.8732 42.6804 41.9954 42.6793 42.1212 42.6782C43.1946 42.6843 44.1687 42.8687 45.0201 43.5578C45.8516 44.4142 46.1003 45.3024 46.0862 46.4618C46.001 47.4275 45.4634 48.1713 44.7651 48.817C44.1642 49.252 43.6177 49.4164 42.8848 49.421C42.7656 49.422 42.6463 49.423 42.5235 49.424C42.3933 49.4245 42.2631 49.425 42.129 49.4256C41.9914 49.4265 41.8538 49.4275 41.712 49.4285C41.256 49.4314 40.8 49.4333 40.344 49.435C40.1866 49.4356 40.0292 49.4363 39.8718 49.4369C39.2166 49.4394 38.5613 49.4416 37.906 49.4429C36.9694 49.4448 36.0329 49.4487 35.0963 49.4554C34.4364 49.46 33.7766 49.4622 33.1167 49.4628C32.7233 49.4633 32.3299 49.465 31.9365 49.4685C31.4967 49.4722 31.057 49.4722 30.6172 49.4713C30.4241 49.4742 30.4241 49.4742 30.2271 49.4772C29.2116 49.469 28.4637 49.1923 27.6777 48.546C26.8149 47.486 26.6391 46.6691 26.7183 45.3014C26.8537 44.4751 27.3914 43.8505 28.0073 43.3092C28.6633 42.9178 29.3323 42.7095 30.0953 42.7068ZM28.7837 45.2648C28.5349 45.7719 28.5309 46.0293 28.5933 46.5905C28.8038 47.0891 29.0407 47.3074 29.5308 47.528C29.9656 47.5804 30.3982 47.576 30.8358 47.5734C30.9676 47.5741 31.0993 47.5747 31.235 47.5753C31.6704 47.5769 32.1057 47.5758 32.541 47.5746C32.8435 47.5749 33.1461 47.5752 33.4486 47.5757C34.0826 47.5762 34.7166 47.5755 35.3506 47.5738C36.083 47.5719 36.8152 47.5725 37.5476 47.5744C38.2529 47.5762 38.9583 47.576 39.6636 47.575C39.9634 47.5748 40.2632 47.5751 40.563 47.5759C40.9818 47.5768 41.4006 47.5754 41.8194 47.5734C41.9435 47.5742 42.0676 47.5749 42.1954 47.5756C43.0124 47.5738 43.0124 47.5738 43.7104 47.1764C43.9909 46.8664 44.1644 46.6373 44.2025 46.2137C44.1737 45.7185 44.1032 45.4709 43.791 45.0743C43.3361 44.7252 43.0296 44.5692 42.453 44.5677C42.3419 44.5669 42.2309 44.5661 42.1164 44.5652C41.9349 44.5656 41.9349 44.5656 41.7497 44.5661C41.6216 44.5655 41.4935 44.5649 41.3615 44.5643C40.9375 44.5626 40.5135 44.5627 40.0895 44.563C39.795 44.5626 39.5005 44.5621 39.2059 44.5615C38.5882 44.5606 37.9706 44.5606 37.3529 44.5613C36.6398 44.562 35.9268 44.5605 35.2137 44.558C34.5268 44.5557 33.8399 44.5554 33.153 44.5558C32.8612 44.5557 32.5694 44.5551 32.2775 44.5539C31.8694 44.5525 31.4613 44.5533 31.0531 44.5546C30.8723 44.5533 30.8723 44.5533 30.6878 44.5519C29.8878 44.5578 29.3384 44.637 28.7837 45.2648Z" fill="white"/>
<path d="M20.5918 13.6475C21.3779 14.311 21.8436 14.8969 21.9563 15.9299C21.9999 17.1217 21.7489 17.9907 20.9424 18.8752C20.0674 19.6425 19.0442 19.7063 17.9289 19.6374C17.1005 19.4976 16.4829 18.9633 15.9368 18.3483C15.3973 17.5243 15.2542 16.5506 15.4167 15.5871C15.6736 14.6307 16.2344 13.9527 17.0738 13.4443C18.2115 12.8735 19.5405 12.919 20.5918 13.6475ZM17.8118 15.3014C17.4616 15.6711 17.2381 15.9556 17.2258 16.4733C17.3734 16.968 17.5118 17.2355 17.8996 17.5792C18.3514 17.7964 18.6051 17.8332 19.1008 17.7624C19.4587 17.5733 19.7147 17.4072 19.9651 17.0885C20.0999 16.603 20.1685 16.1326 19.9275 15.6786C19.6279 15.2941 19.3366 15.0704 18.8664 14.9499C18.3523 14.9499 18.2171 15.0075 17.8118 15.3014Z" fill="white"/>
<path d="M12.4594 13.7413C13.1497 14.3046 13.5405 15.0148 13.7119 15.8873C13.7989 16.9493 13.5727 17.7995 12.8842 18.6265C12.1442 19.3844 11.4365 19.6504 10.3867 19.7105C9.45894 19.6777 8.64177 19.3623 7.97244 18.7076C7.79136 18.4788 7.64358 18.2509 7.50094 17.9967C7.42843 17.8734 7.35592 17.7501 7.28122 17.6231C7.0066 16.6925 7.00678 15.7106 7.46295 14.8399C8.03575 13.9478 8.65381 13.4033 9.67624 13.1041C10.6979 12.9993 11.6047 13.1494 12.4594 13.7413ZM9.49313 15.3013C9.16189 15.6849 9.03507 15.9174 8.97311 16.422C9.04461 16.9838 9.19953 17.2686 9.63961 17.6231C10.0517 17.8011 10.3368 17.81 10.7822 17.7623C11.2101 17.5678 11.4906 17.3544 11.7197 16.942C11.8574 16.4556 11.8813 16.1306 11.6538 15.6822C11.395 15.2838 11.1164 15.1096 10.665 14.9498C10.1411 14.9498 9.93284 15.0265 9.49313 15.3013Z" fill="white"/>
<path d="M29.1997 13.9099C29.8775 14.6065 30.2355 15.4044 30.2704 16.3708C30.2538 17.2782 29.9554 18.0814 29.3403 18.7512C28.503 19.5022 27.6191 19.7273 26.5058 19.6906C25.6427 19.5679 24.9236 19.1402 24.3745 18.4656C23.72 17.5333 23.5702 16.7985 23.6713 15.6531C23.8952 14.7886 24.4534 13.9944 25.2012 13.5025C26.5276 12.8068 28.0333 12.9635 29.1997 13.9099ZM26.0151 15.3015C25.7267 15.6121 25.5612 15.8354 25.5234 16.2642C25.5521 16.7709 25.6227 17.009 25.9492 17.4109C26.369 17.7385 26.6354 17.8095 27.1751 17.8036C27.6886 17.7177 27.9779 17.3613 28.2929 16.9641C28.3986 16.553 28.3522 16.1734 28.2416 15.7703C27.9603 15.3081 27.709 15.0935 27.187 14.9499C26.6631 14.9499 26.4548 15.0267 26.0151 15.3015Z" fill="white"/>
</g>
<defs>
<clipPath id="clip0_695_1085">
<rect width="60" height="60" fill="white" transform="translate(0 0.77002)"/>
</clipPath>
</defs>
</svg>
